<?xml version="1.0" standalone="no"?>
<!DOCTYPE svg PUBLIC "-//W3C//DTD SVG 1.1//EN" "http://www.w3.org/Graphics/SVG/1.1/DTD/svg11.dtd" >
<svg xmlns="http://www.w3.org/2000/svg">
<metadata>
This is a custom SVG webfont generated by Font Squirrel.
Copyright   :  2008 Microsoft Corporation All rights reserved
Designer    : Raghunath Joshi Type Design Director Apurva Joshi
</metadata>
<defs>
<font id="webfontxU36F2X2" horiz-adv-x="1064" >
<font-face units-per-em="2048" ascent="1638" descent="-410" />
<missing-glyph horiz-adv-x="638" />
<glyph unicode=" "  horiz-adv-x="638" />
<glyph unicode="&#x09;" horiz-adv-x="638" />
<glyph unicode="&#xa0;" horiz-adv-x="638" />
<glyph unicode="!" horiz-adv-x="512" d="M129 0v246h252v-246h-252zM147 989v332h218v-332l-31 -686h-156z" />
<glyph unicode="&#x22;" horiz-adv-x="716" d="M57 1083v238h248v-238l-41 -270h-160zM412 1083v238h250v-238l-44 -270h-159z" />
<glyph unicode="#" horiz-adv-x="1024" d="M20 348v201h170l48 237h-150v199h191l67 336h207l-68 -336h183l69 336h205l-68 -336h132v-199h-170l-48 -237h150v-201h-190l-68 -348h-209l70 348h-183l-69 -348h-207l68 348h-130zM397 549h183l49 237h-185z" />
<glyph unicode="$" horiz-adv-x="1024" d="M70 420h241q10 -94 39 -148q31 -55 84 -77v380q-336 80 -336 359q0 77 24.5 141.5t67.5 110.5q43 47 107 78q61 31 137 43v131h170v-129q291 -43 328 -375h-246q-10 133 -82 164v-336q90 -18 166 -55q66 -31 102 -74q82 -94 82 -246q0 -80 -22 -141q-25 -68 -68 -123 q-37 -49 -110 -90q-63 -37 -150 -49v-131h-170v131q-92 12 -153 45q-72 37 -111 88q-43 55 -68 131q-26 86 -32 172zM340 946q0 -57 25 -92q25 -33 69 -51v297q-94 -37 -94 -154zM604 193q111 37 111 186q0 4 -6 53q-2 23 -17 43q-14 23 -33 33q-22 12 -55 24v-339z" />
<glyph unicode="%" horiz-adv-x="1638" d="M59 981q0 84 25 152q27 74 66 114q43 47 98 70q59 25 126.5 24.5t127.5 -24.5q57 -25 100 -70q39 -41 66 -114q25 -68 24 -152q0 -82 -24 -150q-25 -70 -66 -112q-45 -49 -100 -72q-59 -25 -127 -24.5t-127 24.5q-57 25 -101 70q-41 43 -63 114q-25 78 -25 150zM272 981 q0 -180 103 -180q104 0 104 180q0 182 -104 182q-103 0 -103 -182zM360 0l721 1321h209l-719 -1321h-211zM948 340q0 82 25 149q25 70 65 113q47 49 99 72q59 25 126.5 24.5t127.5 -24.5q55 -23 100 -72q39 -41 65 -115q23 -61 23 -147q0 -90 -23 -152q-27 -74 -65 -114 q-45 -49 -100 -72q-59 -25 -127 -25t-127 25q-55 23 -101 72q-41 45 -63 112q-25 78 -25 154zM1161 340q0 -184 103 -184q104 0 104 184q0 180 -104 180q-103 0 -103 -180z" />
<glyph unicode="&#x26;" horiz-adv-x="1228" d="M82 383q0 139 78 240q37 43 80 77q59 47 106 76q-53 72 -84 142q-27 59 -26 114q0 68 24 123q25 53 72 98q41 39 108 66q55 23 135 22q68 0 130 -22q53 -20 100 -63.5t69.5 -94.5t22.5 -117q0 -47 -12 -90q-10 -35 -41 -80q-27 -37 -68 -75q-35 -33 -96 -70l43 -55 l39 -47q8 -10 17 -22.5t20 -24.5l49 -62q2 8 12 74q0 4 6 88h244q0 -51 -16 -166q-16 -109 -76 -235l131 -166l-182 -154l-105 133q-145 -115 -356 -115q-96 0 -170 33q-80 35 -133 88q-59 59 -88 129q-33 78 -33 156zM324 393q0 -31 14 -74q12 -39 37 -65q25 -29 59 -47 t74 -19q131 0 219 76l-252 348q-43 -25 -55 -34q-23 -14 -45 -37q-20 -20 -37 -54q-14 -28 -14 -94zM467 1049q0 -29 18 -62q27 -49 47 -76l21 -22q55 33 86 69q27 33 27 82q0 25 -9 41q-12 25 -20 33q-14 14 -33 21q-25 8 -37 8q-39 0 -71 -27q-29 -22 -29 -67z" />
<glyph unicode="'" horiz-adv-x="350" d="M51 1083v238h250v-238l-43 -270h-160z" />
<glyph unicode="(" horiz-adv-x="612" d="M51 487q0 113 21 215q25 125 59 218q37 100 98 213q53 98 138 208h194q-141 -229 -207 -440q-70 -225 -69 -414q0 -98 18 -204q20 -117 51 -220q35 -113 86 -225q51 -111 121 -225h-194q-84 106 -140 211q-58 111 -98 221q-41 115 -59 223q-19 110 -19 219z" />
<glyph unicode=")" horiz-adv-x="612" d="M51 -387q70 115 121 225q51 113 86 225q35 117 53 220q16 96 17 204q0 188 -70 414q-66 211 -207 440h197q84 -111 137 -208q61 -113 98 -213q35 -92 60 -218q18 -92 18 -215q0 -109 -18 -219q-18 -109 -60 -223q-40 -111 -98 -221q-59 -111 -137 -211h-197z" />
<glyph unicode="*" horiz-adv-x="935" d="M127 408v157h168l-127 127l94 94l123 -124v163h162v-163l127 124l92 -94l-127 -127h168v-157h-168l127 -125l-92 -97l-127 125v-161h-162v161l-123 -125l-94 97l127 125h-168z" />
<glyph unicode="+" horiz-adv-x="1075" d="M96 528v217h332v332h219v-332h334v-217h-334v-331h-219v331h-332z" />
<glyph unicode="," horiz-adv-x="512" d="M129 0v246h252v-207q0 -59 -16 -119q-14 -53 -48 -98q-29 -39 -77 -66q-47 -25 -111 -24v135q61 0 82 29q23 33 22 104h-104z" />
<glyph unicode="-" horiz-adv-x="612" d="M39 365v227h536v-227h-536z" />
<glyph unicode="." horiz-adv-x="512" d="M131 0v246h250v-246h-250z" />
<glyph unicode="/" horiz-adv-x="512" d="M-33 0l383 1321h203l-383 -1321h-203z" />
<glyph unicode="0" horiz-adv-x="1024" d="M78 651q0 172 26 297q27 127 82.5 215t135.5 133q82 45 190.5 45t189.5 -45q80 -45 135.5 -133t82.5 -215q29 -133 28 -297q0 -330 -110.5 -502t-325.5 -172q-218 0 -326 173t-108 501zM317 651q0 -131 13 -223q10 -82 39 -145q27 -59 59 -82q37 -25 84 -25t84 25 q35 25 61 82q25 53 37 147q12 89 13 221q0 133 -13 226q-12 94 -37 151q-27 61 -61.5 88t-83.5 27t-84 -27q-35 -25 -59 -86q-27 -66 -39 -151q-13 -93 -13 -228z" />
<glyph unicode="1" horiz-adv-x="1024" d="M201 901v199q291 0 334 221h192v-1321h-235v938q-105 -37 -291 -37z" />
<glyph unicode="2" horiz-adv-x="1024" d="M70 0q0 170 71 279q37 55 105 124q70 72 160 146q80 63 143 123q51 47 94 102q35 43 51.5 92t16.5 101q0 82 -47.5 129t-135.5 47q-37 0 -67 -15q-35 -16 -59.5 -42.5t-43.5 -71.5q-16 -41 -20 -101h-242q10 102 41 176t92 136q55 55 133 86q76 31 170 30q96 0 179 -28 q78 -27 131 -80q55 -55 81.5 -120.5t26.5 -149.5q0 -82 -18 -138q-20 -61 -62 -120q-31 -45 -112 -130q-66 -68 -185 -169q-33 -27 -81 -72q-51 -49 -99 -113h561v-221h-884z" />
<glyph unicode="3" horiz-adv-x="1024" d="M74 395h243q0 -43 13 -84q12 -39 36.5 -69.5t61.5 -48.5q33 -16 84 -17q43 0 82 17q37 15 61 43q25 29 41 69q14 37 15 86q0 51 -15 88q-15 40 -43 68q-31 31 -71 45q-45 16 -97 16h-100v199h78q94 0 139 49q47 51 47 135q0 74 -39 113t-110 39q-147 0 -170 -193h-244 q12 94 47 170t88 123q55 49 125 74q72 25 150 24q90 0 163 -24q63 -20 123 -74q51 -45 80 -112.5t29 -141.5q0 -23 -8 -71q-6 -35 -23 -72q-14 -31 -37 -64q-25 -35 -53 -55q47 -23 78 -57q39 -41 57 -80q23 -45 35 -94.5t12 -102.5q0 -88 -34 -168q-35 -78 -93 -133 q-53 -49 -141 -84q-80 -31 -172 -31q-100 0 -172 29q-80 33 -137 86q-55 53 -90 131q-33 74 -39 172z" />
<glyph unicode="4" horiz-adv-x="1024" d="M53 291v186l570 852h186v-825h164v-213h-164v-291h-238v291h-518zM311 504h260v409z" />
<glyph unicode="5" horiz-adv-x="1024" d="M70 393h241q6 -63 23 -96q18 -40 43 -68q25 -29 57 -41q31 -12 68 -12q49 0 88 21q41 23 65 55q33 43 45 82q14 43 15 100q0 63 -17 117q-16 51 -43 84q-25 31 -69 51q-35 16 -86 16q-113 0 -201 -100h-186l57 719h729v-221h-520l-17 -223q76 35 179 34q86 0 157.5 -28.5 t132.5 -89.5q59 -59 92 -143.5t33 -200.5q0 -102 -32 -187q-35 -88 -90 -149q-57 -63 -144 -101q-82 -35 -188 -35q-84 0 -158 25q-70 23 -131 78q-59 53 -96 131q-39 80 -47 182z" />
<glyph unicode="6" horiz-adv-x="1024" d="M76 618q0 184 28 312q31 137 88.5 227t147.5 137t205 47q82 0 141 -22q63 -25 117 -72q51 -45 86 -119q34 -71 49 -165h-246q-20 180 -155 180q-41 0 -76 -25q-34 -25 -62 -67q-25 -37 -47 -107q-22 -65 -30 -141q53 39 108 59q63 25 121 25q92 0 166 -37q72 -37 125 -98 q55 -66 81.5 -146t26.5 -176t-28 -174q-31 -84 -86.5 -145.5t-130.5 -98.5q-72 -35 -175 -35q-106 0 -192 43q-84 41 -143 127q-57 82 -89 201q-30 119 -30 270zM311 571q3 -92 19 -165q12 -61 45 -123q29 -55 65 -80q39 -27 88 -27q41 0 76 19q31 16 58 53q20 29 34 78 q12 43 13 96q0 52 -13 98q-12 45 -37 82q-20 31 -59 55q-33 20 -78 21q-105 -1 -211 -107z" />
<glyph unicode="7" horiz-adv-x="1024" d="M80 1100v221h866v-156l-454 -1165h-261l451 1100h-602z" />
<glyph unicode="8" horiz-adv-x="1024" d="M72 358q0 41 14 99q12 51 39 92q29 45 68 84q35 35 94 67q-86 66 -125 140q-43 80 -43 164q0 72 28.5 135t80 108t125 69.5t159.5 24.5q89 0 160 -24q72 -25 125 -72t80 -106q29 -63 28 -135q0 -90 -41 -164q-43 -78 -127 -140q66 -39 94 -67q39 -39 68 -84t41 -92 q12 -49 12 -99q0 -84 -30.5 -155.5t-90.5 -120.5q-61 -51 -139 -78q-80 -27 -180 -27t-178 27q-80 27 -139 78q-59 49 -91 121q-32 75 -32 155zM313 358q0 -88 53.5 -135t145.5 -47q43 0 80 12q35 12 63 37q25 23 41 58q14 31 15 75q0 65 -49 123q-49 59 -150 105 q-35 -18 -66 -37q-37 -25 -65 -49q-31 -29 -49 -64q-19 -37 -19 -78zM360 1004q0 -117 152 -191q152 74 152 191q0 66 -39 102.5t-113 36.5q-71 0 -111 -37q-41 -36 -41 -102z" />
<glyph unicode="9" horiz-adv-x="1024" d="M76 883q0 98 28 176q29 80 86 145q55 63 131 100t175 37q109 0 190 -41q88 -43 145 -122q55 -76 89 -199q31 -117 30 -270q0 -184 -28 -312q-33 -141 -88 -229q-59 -96 -148 -143q-86 -47 -205 -48q-82 0 -141 23q-66 25 -119 72q-47 41 -84 118q-35 74 -47 166h244 q18 -180 158 -180q40 0 73 25t62 71q27 43 45 111q18 66 30 143q-104 -74 -227 -73q-82 0 -156 30q-70 29 -126 90q-55 59 -87 138q-30 80 -30 172zM317 893q0 -55 13 -98q12 -47 37 -76q25 -31 59 -49q33 -18 78 -19q104 0 209 107q-4 94 -19 164q-14 66 -45 120 q-29 51 -65.5 76t-83.5 25q-41 0 -76 -19q-29 -16 -57 -55q-25 -34 -37 -80q-13 -47 -13 -96z" />
<glyph unicode=":" horiz-adv-x="512" d="M131 0v246h250v-246h-250zM131 709v245h250v-245h-250z" />
<glyph unicode=";" horiz-adv-x="512" d="M129 0v246h252v-207q0 -59 -16 -119q-14 -53 -48 -98q-29 -39 -77 -66q-47 -25 -111 -24v135q61 0 82 29q23 33 22 104h-104zM131 709v245h250v-245h-250z" />
<glyph unicode="&#x3c;" horiz-adv-x="1075" d="M96 543v188l885 377v-234l-575 -237l575 -238v-231z" />
<glyph unicode="=" horiz-adv-x="1075" d="M96 344v215h885v-215h-885zM96 713v217h885v-217h-885z" />
<glyph unicode="&#x3e;" horiz-adv-x="1075" d="M96 168v231l578 238l-578 237v234l885 -377v-188z" />
<glyph unicode="?" horiz-adv-x="1024" d="M80 913q10 106 43 179q37 82 94 135q59 57 133 86q72 29 166 28q98 0 176 -26.5t135 -77.5q59 -51 88 -117q31 -68 31 -147q0 -63 -12 -101q-18 -53 -39 -90q-23 -39 -61.5 -82t-75.5 -71q-59 -51 -76 -70q-33 -37 -39 -51q-20 -41 -20 -191h-226q0 203 39 281 q39 80 144 166q39 31 69 65q20 25 37 52q14 25 16 41q4 25 5 41q0 33 -15 71q-10 29 -38.5 57.5t-57.5 38.5q-35 12 -78 13q-162 0 -199 -230h-239zM391 0v246h248v-246h-248z" />
<glyph unicode="@" horiz-adv-x="1871" d="M123 426q0 88 16 186q14 88 49 176q37 92 78 162q41 68 109 140q244 252 616 251q111 0 201 -20q94 -20 182 -66q84 -43 154 -102q70 -61 119 -137q47 -74 75 -170q27 -88 27 -197q0 -154 -41 -268q-43 -121 -117 -207q-72 -84 -176 -131q-98 -45 -215 -45q-57 0 -106 27 q-45 25 -70 67q-96 -94 -238 -94q-76 0 -135 27q-66 29 -108 75q-45 47 -70 119q-27 76 -27 158q0 231 146 414q72 90 151.5 133t165.5 43q151 0 240 -68l8 43h232l-134 -596q-2 -14 -8 -37.5t-8 -34.5q-4 -20 -4 -53q0 -25 22 -24q45 0 99 32q55 34 98 93q41 55 68 145 q25 83 24 184q0 109 -41 197t-116 158q-72 66 -177 106q-98 39 -223 39q-139 0 -260 -51t-211 -150q-43 -47 -82 -110q-37 -61 -61 -129q-29 -78 -39 -140q-12 -72 -12 -145q0 -137 47 -250q45 -109 135 -186q84 -72 217 -115q123 -39 285 -39q188 0 362 78l105 -170 q-225 -100 -465 -100q-201 0 -367 53q-160 51 -281 156q-117 101 -178 245t-61 328zM680 381q0 -184 137 -184q41 0 72 16q37 20 65.5 49t55.5 76q25 43 37 96l53 258q-59 76 -178 76q-49 0 -92.5 -37t-75.5 -90q-29 -47 -54 -125q-20 -63 -20 -135z" />
<glyph unicode="A" horiz-adv-x="1288" d="M4 0l508 1321h236l536 -1321h-274l-144 379h-463l-137 -379h-262zM477 588h311l-159 418z" />
<glyph unicode="B" horiz-adv-x="1271" d="M160 0v1321h483q106 0 193 -25q84 -25 147 -71q57 -43 94 -113q33 -63 33 -147q0 -86 -31 -148q-29 -57 -96 -108q51 -23 84 -56q37 -37 59 -73q20 -35 35 -86q10 -39 10 -93q0 -197 -126.5 -299t-376.5 -102h-508zM406 227h260q254 0 254 174q0 39 -15 78 q-10 29 -45 53.5t-84 32.5q-57 10 -133 10h-237v-348zM406 801h235q117 0 170 33q55 35 55 116q0 37 -12 64q-10 25 -41 45q-25 16 -74 26q-41 8 -112 9h-221v-293z" />
<glyph unicode="C" horiz-adv-x="1363" d="M100 662q0 154 43 280q41 123 125 215q78 86 195 137q109 47 256 47q100 0 192 -30q96 -33 164 -88q74 -61 121 -138q45 -74 66 -180h-250q-8 43 -37 90q-23 37 -64 68q-35 27 -88 43q-45 14 -102 14q-86 0 -154 -30q-70 -31 -116 -89q-49 -59 -74 -143 q-27 -92 -27 -196.5t27 -196.5q25 -88 74 -146q51 -59 116 -90q68 -31 150 -30q120 0 196.5 61.5t98.5 177.5h254q-15 -111 -62 -196q-45 -84 -117 -144q-72 -57 -165 -90q-86 -29 -203 -28q-150 0 -258 47q-117 51 -195 137q-80 89 -123 215t-43 283z" />
<glyph unicode="D" horiz-adv-x="1368" d="M160 0v1321h436q674 0 674 -653q0 -668 -674 -668h-436zM408 227h186q127 0 205 29t131 88q45 51 67 137q20 80 21 187q0 98 -19 178q-18 76 -69 135q-51 57 -129 84q-86 29 -207 29h-186v-867z" />
<glyph unicode="E" horiz-adv-x="1267" d="M160 0v1321h981v-227h-735v-299h688v-226h-688v-342h763v-227h-1009z" />
<glyph unicode="F" horiz-adv-x="1179" d="M160 0v1321h921v-227h-675v-306h587v-225h-587v-563h-246z" />
<glyph unicode="G" horiz-adv-x="1480" d="M100 661.5q0 151.5 47 280.5q46 126 129 215q82 88 201 135t258 47q113 0 211 -30q100 -31 176 -86q72 -53 125 -138q49 -80 68 -178h-254q-20 100 -107 158q-80 53 -217 53q-90 0 -155 -28q-72 -31 -123 -89q-49 -53 -78 -145q-29 -90 -29 -194.5t29 -194.5t80 -148 q55 -61 121 -90q70 -31 157 -30q129 0 211 34q88 37 148 113v139h-328v228h571v-713h-190l-31 94q-61 -53 -164 -86q-88 -29 -215 -28q-145 0 -262 49q-123 51 -203 137q-83 89 -129 215q-47 129 -47 280.5z" />
<glyph unicode="H" horiz-adv-x="1376" d="M160 0v1321h246v-510h565v510h248v-1321h-248v586h-565v-586h-246z" />
<glyph unicode="I" horiz-adv-x="563" d="M160 0v1321h246v-1321h-246z" />
<glyph unicode="J" horiz-adv-x="1001" d="M80 360v72h246q0 -227 127 -227q37 0 61.5 8t42.5 33q18 27 29 69q10 47 10 113v893h246v-885q0 -125 -25 -211q-25 -90 -72 -141q-49 -55 -122.5 -79.5t-169.5 -24.5q-88 0 -154 26q-74 31 -119 76q-49 49 -74 121q-26 75 -26 157z" />
<glyph unicode="K" horiz-adv-x="1310" d="M160 0v1321h248v-555l548 555h336l-563 -553l567 -768h-315l-426 598l-147 -143v-455h-248z" />
<glyph unicode="L" horiz-adv-x="1091" d="M160 0v1321h246v-1094h606v-227h-852z" />
<glyph unicode="M" horiz-adv-x="1570" d="M160 0v1321h319l307 -942l308 942h317v-1321h-237v846l-285 -846h-207l-283 846v-846h-239z" />
<glyph unicode="N" horiz-adv-x="1376" d="M160 0v1321h233l586 -885v885h240v-1321h-234l-588 883v-883h-237z" />
<glyph unicode="O" horiz-adv-x="1468" d="M100 661.5q0 149.5 47 278.5q45 125 134 215q88 92 200.5 139t253.5 47q137 0 254 -49q115 -49 201 -137q88 -90 133 -215q47 -129 47 -278q0 -147 -47 -277q-45 -123 -131 -215q-86 -94 -201 -141q-117 -49 -256 -49t-256 49t-200 139q-86 92 -132 215 q-47 129 -47 278.5zM350 662q0 -104 29 -194.5t80 -148.5q55 -61 121 -90q71 -31 153 -30q86 0 155.5 30.5t123.5 89.5q47 53 78 148q29 90 28.5 194.5t-28.5 194.5q-29 88 -80.5 145.5t-121 88t-151.5 30.5q-86 0 -155 -30q-66 -29 -121 -91q-51 -57 -80 -145 q-31 -96 -31 -192z" />
<glyph unicode="P" horiz-adv-x="1273" d="M160 0v1321h506q101 0 196 -18q98 -18 166 -64q72 -47 115 -123q43 -77 43 -196q0 -213 -129 -317.5t-379 -104.5h-272v-498h-246zM406 723h276q68 0 115 12.5t77.5 37t45 59t14.5 83.5q0 57 -21 91q-25 39 -57 55q-43 20 -82 26q-45 6 -96 7h-272v-371z" />
<glyph unicode="Q" horiz-adv-x="1468" d="M100 662q0 158 47 278q51 129 134 215q88 92 200.5 139t253.5 47q139 0 256 -49q115 -49 201 -137q84 -88 131 -215q47 -129 47 -278q0 -143 -35 -250q-35 -111 -108 -205l182 -146l-149 -178l-216 170q-63 -35 -145 -55q-76 -18 -164 -18q-139 0 -256 49t-200 139 q-86 92 -132 215q-47 129 -47 279zM352 662q0 -104 29 -194.5t80 -148.5q55 -61 121 -90q71 -31 153 -30q16 0 53 4q23 2 54 10l-101 80l150 178l147 -119q80 119 80 310q0 104 -28 194q-29 92 -78 145q-51 57 -121 89q-71 31 -154 30.5t-153 -30.5q-70 -31 -123 -91 q-51 -57 -80 -145q-29 -90 -29 -192z" />
<glyph unicode="R" horiz-adv-x="1384" d="M160 0v1321h592q37 0 102 -4q59 -4 90 -10q49 -10 84 -27q43 -20 78 -49q65 -55 98 -135q33 -78 33 -162q0 -119 -59.5 -207t-159.5 -133q39 -27 76 -82q35 -51 59 -121l143 -391h-266l-127 358q-12 39 -34.5 70t-53.5 53q-39 27 -67 37q-37 12 -76 12h-264v-530h-248z M408 758h327q61 0 112.5 10t78 28.5t43.5 55.5q14 31 14 82q0 89 -55 129q-57 41 -168 41h-352v-346z" />
<glyph unicode="S" horiz-adv-x="1271" d="M100 440h242q12 -66 41 -104q33 -45 72 -74t96 -45q41 -12 110.5 -12t110.5 10q43 10 84 35q37 22 55.5 55.5t18.5 73.5t-19 67q-23 33 -59 52q-47 25 -111 41q-78 20 -168 41q-115 25 -194 57q-88 35 -135 78q-51 45 -76 106q-27 68 -27 137q0 80 35 154q33 68 100 123 q61 49 152 78q92 29 197 28q106 0 198 -28q90 -29 158 -80t109 -131q41 -78 49 -174h-240q-43 186 -266 186q-121 0 -184.5 -39t-63.5 -110q0 -31 14.5 -51.5t44.5 -39.5q27 -14 78 -32q25 -8 115 -29l121 -27q72 -18 123 -36q78 -29 112 -50q52 -31 92 -73q43 -47 64 -101 q23 -61 22 -135q0 -88 -36 -166q-37 -76 -105 -131q-66 -53 -158 -83.5t-200 -30.5q-139 0 -240 32q-104 35 -174 94q-68 59 -108 148q-42 86 -50 186z" />
<glyph unicode="T" horiz-adv-x="1185" d="M59 1094v227h1067v-227h-409v-1094h-248v1094h-410z" />
<glyph unicode="U" horiz-adv-x="1376" d="M160 563v758h246v-756q0 -104 20 -182q18 -74 53 -110.5t90 -53.5q49 -14 119 -14q74 0 123 14q53 16 88 53t53 111q18 72 19 182v756h248v-758q0 -138 -25 -246q-27 -115 -84 -184q-63 -76 -161.5 -114.5t-260.5 -38.5q-125 0 -211 24q-90 27 -147 68q-59 43 -92 100 q-33 55 -52 123q-20 68 -22 133q-4 90 -4 135z" />
<glyph unicode="V" horiz-adv-x="1302" d="M25 1321h264l362 -985l365 985h264l-514 -1321h-227z" />
<glyph unicode="W" horiz-adv-x="1787" d="M41 1321h258l219 -889l246 889h260l246 -889l219 889h260l-369 -1321h-219l-268 967l-266 -967h-221z" />
<glyph unicode="X" horiz-adv-x="1347" d="M25 0l505 694l-456 627h301l299 -428l301 428h301l-459 -627l506 -694h-301l-346 496l-346 -496h-305z" />
<glyph unicode="Y" horiz-adv-x="1341" d="M25 1321h299l348 -535l348 535h297l-522 -766v-555h-246v555z" />
<glyph unicode="Z" horiz-adv-x="1183" d="M59 0v209l727 885h-657v227h973v-211l-727 -883h749v-227h-1065z" />
<glyph unicode="[" horiz-adv-x="512" d="M88 -338v1659h410v-201h-174v-1257h174v-201h-410z" />
<glyph unicode="\" horiz-adv-x="512" d="M-51 1321h205l381 -1321h-203z" />
<glyph unicode="]" horiz-adv-x="512" d="M14 -137h174v1257h-174v201h410v-1659h-410v201z" />
<glyph unicode="^" horiz-adv-x="864" d="M33 733l317 588h168l320 -588h-246l-158 311l-158 -311h-243z" />
<glyph unicode="_" horiz-adv-x="1017" d="M-8 -104h1034v-162h-1034v162z" />
<glyph unicode="`" horiz-adv-x="675" d="M68 1366h284l137 -274h-204z" />
<glyph unicode="a" horiz-adv-x="1056" d="M80 270q0 348 571 348h37q0 37 -6 68q-6 33 -23 51q-18 20 -53 31q-37 10 -90 10q-68 0 -113 -22q-43 -20 -57 -82h-240q43 305 420 305q78 0 166 -18q74 -16 125 -58q49 -41 78 -114.5t29 -182.5v-606h-236v49q-63 -37 -125 -53q-68 -18 -143.5 -18.5t-135 20 t-106.5 61.5q-49 43 -72 93q-26 59 -26 118zM319 279q0 -47 39 -74q41 -29 107 -29q68 0 127 27q61 27 96 78v145h-67q-302 0 -302 -147z" />
<glyph unicode="b" horiz-adv-x="1062" d="M135 0v1321h236v-414q96 72 211 72q98 0 171.5 -37t125.5 -100q53 -66 79 -156q25 -82 25 -201q0 -114 -31 -209q-31 -94 -86 -161q-51 -61 -131 -103q-70 -35 -164 -35q-59 0 -108 13q-47 12 -92 39v-29h-236zM371 262q41 -41 92 -63.5t100 -22.5q80 0 131 80 q47 74 47 229q0 147 -45 220q-45 74 -127 73q-102 0 -198 -127v-389z" />
<glyph unicode="c" horiz-adv-x="980" d="M80 477q0 121 33 211q35 94 92 157.5t143 98.5t187 35q74 0 141 -23q65 -22 117 -61q47 -37 88 -104q35 -59 51 -144h-246q-10 72 -51 101q-43 31 -100 30q-46 0 -86 -18q-37 -16 -68 -58q-27 -35 -43 -94t-16 -130.5t16 -131.5q15 -55 43 -92q31 -41 68 -57 q45 -20 86 -21q25 0 51 10q33 12 47 25q16 14 35 43q10 16 18 59h246q-14 -82 -51 -145.5t-88 -106.5q-49 -41 -117 -63q-61 -20 -141 -21q-104 0 -185 33q-84 35 -143.5 96.5t-93.5 157.5q-33 90 -33 213z" />
<glyph unicode="d" d="M80 471q0 121 31 213q31 90 88 158q59 68 131 100q84 37 162 37q47 0 108 -14q49 -12 96 -37v393h234v-1321h-234v49q-53 -37 -100 -53q-51 -18 -113 -19q-100 0 -172 35q-76 37 -127 101q-49 59 -78 157q-26 88 -26 201zM322 471q0 -143 47 -219q45 -74 127 -74 q106 0 200 125v389q-92 86 -194 86q-82 0 -131 -75.5t-49 -231.5z" />
<glyph unicode="e" d="M80 477q0 119 33 209q35 96 94 158q68 70 141 100q86 35 184 35q102 0 189 -35q83 -34 141 -98q63 -70 92 -158q31 -92 31 -211v-74h-657q18 -115 78 -170q61 -57 145 -57q29 0 53.5 8.5t50.5 24.5q20 12 41 37q16 18 27 53h246q-20 -82 -56 -137q-43 -66 -94 -103 q-55 -40 -123 -61q-63 -20 -145 -21q-109 0 -193 33q-86 34 -147 99q-63 66 -96 157q-35 94 -35 211zM334 602h397q-20 88 -74 131q-55 45 -125 45q-68 0 -123 -45t-75 -131z" />
<glyph unicode="f" horiz-adv-x="579" d="M31 758v196h129v72q0 319 284 320q43 0 82 -7q31 -4 74 -16v-211q-51 10 -78 12q-41 4 -53 4q-37 0 -55.5 -24.5t-18.5 -79.5v-70h166v-196h-166v-758h-235v758h-129z" />
<glyph unicode="g" d="M80 471q0 121 31 213q31 90 88 158q59 68 131 100q84 37 162 37q47 0 108 -14q49 -12 96 -37v26h234v-878q0 -463 -422 -463q-88 0 -156 20q-76 23 -121 58q-51 39 -81 94q-33 59 -39 127h245q23 -100 148 -100q84 0 133 57q47 57 57 178q-53 -37 -100 -53.5t-111 -16.5 q-100 0 -172 35q-76 37 -127 101q-49 59 -78 157q-26 88 -26 201zM322 471q0 -143 47 -219t127 -76q106 0 200 125v391q-92 86 -194 86q-82 0 -131 -75.5t-49 -231.5z" />
<glyph unicode="h" d="M135 0v1321h236v-422q101 80 221 80q340 0 340 -367v-612h-240v606q0 88 -28 127q-29 37 -95 37q-96 0 -198 -115v-655h-236z" />
<glyph unicode="i" horiz-adv-x="503" d="M135 0v954h234v-954h-234zM135 1073v248h234v-248h-234z" />
<glyph unicode="j" horiz-adv-x="514" d="M-31 -156q18 -6 82 -20q27 -6 45 -6q15 0 25 6q8 4 14 22q4 10 8 45q2 18 2 70v993h236v-997q0 -109 -19 -176q-18 -66 -53 -105q-37 -39 -82 -51q-49 -12 -110 -12q-49 0 -74 2q-49 4 -74 8v221zM145 1073v248h236v-248h-236z" />
<glyph unicode="k" horiz-adv-x="993" d="M135 0v1321h236v-659l282 292h310l-379 -368l391 -586h-283l-270 424l-51 -51v-373h-236z" />
<glyph unicode="l" horiz-adv-x="503" d="M135 0v1321h234v-1321h-234z" />
<glyph unicode="m" horiz-adv-x="1538" d="M135 0v954h236v-55q57 45 100 62q53 18 109 18q86 0 155 -33q61 -29 101 -96q40 43 73 68q41 31 64 38q35 14 59 17q55 6 60 6q313 0 313 -367v-612h-240v606q0 92 -20 127q-23 37 -76 37q-86 0 -184 -115v-655h-234v606q0 88 -22 127q-22 37 -74 37q-86 0 -184 -115 v-655h-236z" />
<glyph unicode="n" d="M135 0v954h236v-55q101 80 221 80q340 0 340 -367v-612h-240v606q0 88 -28 127q-29 37 -95 37q-96 0 -198 -115v-655h-236z" />
<glyph unicode="o" d="M80 477q0 121 33 211q35 94 92 158q58 65 141 98q86 35 186 35q102 0 189 -35q83 -34 141 -98q63 -70 92 -158q31 -92 31 -211q0 -127 -31 -211q-35 -94 -92 -157.5t-143 -98.5q-80 -33 -187 -33q-104 0 -184 33q-90 37 -143 96q-57 63 -92 158q-33 90 -33 213zM322 477 q0 -72 16 -131q15 -55 43 -92q31 -41 65 -57q45 -20 86 -20.5t86 20.5q35 16 66 57q28 37 43 92q16 59 16 131t-16 131.5t-43 93.5q-31 41 -66 58q-40 18 -86 18t-86 -18q-35 -16 -65 -58q-27 -35 -43 -94t-16 -131z" />
<glyph unicode="p" horiz-adv-x="1062" d="M135 -369v1323h236v-47q96 72 211 72q98 0 171.5 -37t125.5 -100q53 -66 79 -156q25 -82 25 -201q0 -114 -31 -209q-31 -94 -86 -161q-51 -61 -131 -103q-70 -35 -164 -35q-68 0 -108 11q-47 12 -92 39v-396h-236zM371 260q90 -84 192 -84q80 0 131 80q47 74 47 229 q0 147 -45 220q-45 74 -127 73q-102 0 -198 -127v-391z" />
<glyph unicode="q" d="M80 471q0 121 31 213q31 90 88 158q59 68 131 100q84 37 162 37q109 0 204 -51v26h234v-1323h-234v416q-94 -70 -213 -70q-100 0 -172 35q-76 37 -127 101q-49 59 -78 157q-26 88 -26 201zM322 471q0 -143 47 -219t127 -76q106 0 200 125v391q-92 86 -194 86 q-82 0 -131 -75.5t-49 -231.5z" />
<glyph unicode="r" horiz-adv-x="684" d="M135 0v954h236v-55q90 80 190 80q8 0 45 -4q45 -4 66 -10v-244q-41 16 -60 20q-27 6 -76 6.5t-87 -24.5q-37 -23 -78 -76v-647h-236z" />
<glyph unicode="s" horiz-adv-x="970" d="M80 301h239q18 -125 177 -125q78 0 118.5 31t40.5 74q0 23 -8 32q-8 12 -35 25q-25 12 -67 24q-20 6 -50 12.5t-65 16.5q-86 22 -147 43q-61 20 -103 53q-41 31 -59 78q-20 51 -21 119q0 59 27 117q25 52 74 92q53 43 116 63q72 23 152 23q367 0 391 -293h-235 q-25 92 -146 92q-31 0 -55 -6q-37 -10 -47 -14q-18 -9 -31 -25q-10 -12 -10 -35q0 -15 6 -24q8 -12 27 -21q31 -12 63 -22q14 -4 53 -13.5l62 -15.5q59 -14 151 -45q66 -23 109 -55q41 -33 63 -84q20 -47 21 -121q0 -66 -29 -127q-29 -59 -78 -100q-55 -45 -122 -68 q-74 -25 -164 -25q-375 0 -418 324z" />
<glyph unicode="t" horiz-adv-x="552" d="M31 758v196h106v240h240v-240h141v-196h-141v-479q0 -39 2 -54q2 -20 8 -30q6 -12 14 -15q12 -4 21 -4q10 0 51 4q10 0 66 10v-192q-27 -8 -82 -16q-25 -4 -70 -5q-84 0 -133 19q-51 18 -76 59q-27 45 -33 97q-8 78 -8 135v471h-106z" />
<glyph unicode="u" horiz-adv-x="1067" d="M135 342v612h240v-606q0 -88 28 -127q27 -37 95 -37q109 0 200 115v655h236v-954h-236v55q-98 -78 -225 -78q-338 0 -338 365z" />
<glyph unicode="v" horiz-adv-x="978" d="M31 954h254l204 -600l203 600h256l-360 -954h-197z" />
<glyph unicode="w" horiz-adv-x="1374" d="M31 954h260l135 -551l162 551h205l163 -551l134 551h256l-287 -954h-209l-160 545l-160 -545h-213z" />
<glyph unicode="x" horiz-adv-x="1015" d="M20 0l351 496l-328 458h293l172 -270l170 270h293l-328 -458l354 -496h-292l-197 307l-197 -307h-291z" />
<glyph unicode="y" horiz-adv-x="968" d="M20 954h254l205 -600l203 600h256l-350 -929q-37 -100 -64 -158q-39 -84 -73 -133q-39 -53 -93 -88q-51 -33 -127 -33q-45 0 -67 4q-39 6 -76 18v224q49 -20 74 -23q37 -4 43 -4q20 0 43 16q22 15 43 43q23 29 41 66q23 43 35 80z" />
<glyph unicode="z" horiz-adv-x="976" d="M59 0v184l500 564h-467v206h799v-182l-500 -561h527v-211h-859z" />
<glyph unicode="{" horiz-adv-x="632" d="M37 373v209q29 0 69 12q31 9 50 24q20 16 28 37q12 29 15 43q2 6 3 23.5t1 26.5q2 23 2 73q0 20 1 41t1 43q0 14 1 43t1 41q0 31 4 76q0 10 1 27.5t3 25.5q8 59 35 105q23 41 61 69q31 23 86 37q49 12 111 12h65v-204h-45q-59 0 -69 -23q-4 -10 -6 -32.5t-6 -59.5 q-2 -23 -3 -78q0 -14 -1 -45t-1 -47q0 -86 -8 -137q-10 -63 -26.5 -104.5t-42.5 -78.5q-25 -33 -60 -55q35 -23 59.5 -53.5t43.5 -75.5q18 -43 26 -104q8 -55 8 -140q0 -16 1 -46.5t1 -45.5q0 -55 3 -80q2 -31 6 -59q2 -23 6 -33q10 -23 69 -22h45v-205h-65q-55 0 -98 8 q-49 10 -88 33q-37 23 -68 70t-39 112q-4 29 -4 55q0 10 -1 35t-1 39q0 12 -1 41t-1 43t-1 43t-1 41q0 31 -4 72q0 8 -1 26.5t-3 24.5q-2 14 -15 43q-10 23 -28 39q-18 15 -50 24q-34 11 -69 11z" />
<glyph unicode="|" horiz-adv-x="485" d="M139 -369v1690h209v-1690h-209z" />
<glyph unicode="}" horiz-adv-x="632" d="M37 -182h47q57 0 68 22q6 20 8 33q2 8 3 28.5t1 30.5q4 49 4 80v92q0 84 8 140q8 61 27 104q18 45 42.5 76t59.5 53q-35 23 -59 55q-27 37 -43.5 78t-26.5 105q-8 51 -8 137v92q0 33 -4 78q0 10 -1 30.5t-3 28.5q-2 12 -8 33q-10 23 -68 23h-47v204h65q61 0 111 -12 q57 -14 88 -37q39 -29 61.5 -69.5t32.5 -104.5q2 -8 3 -25.5t1 -27.5q4 -45 4 -76q0 -12 1.5 -40.5t1.5 -43.5q0 -23 1 -43t1 -41q0 -14 1 -38.5t1 -34.5q0 -12 6 -50q3 -22 12 -43q8 -20 29 -37q18 -15 49 -24q41 -12 69 -12v-209q-39 0 -69 -11q-33 -10 -49 -24 q-18 -16 -28.5 -39t-12.5 -43q-2 -14 -6 -51q-4 -41 -4 -72v-84q0 -14 -1.5 -43t-1.5 -41q0 -14 -2 -38.5t-2 -35.5q0 -27 -4 -55q-8 -66 -38.5 -113t-67.5 -69q-39 -23 -88 -33q-43 -8 -99 -8h-65v205z" />
<glyph unicode="~" horiz-adv-x="1075" d="M80 1026v234q96 109 248 108q102 0 233 -59q72 -33 121 -47.5t86 -14.5q115 0 231 123v-233q-96 -109 -247 -109q-104 0 -236 59q-139 61 -205 62q-118 0 -231 -123z" />
<glyph unicode="&#xa1;" horiz-adv-x="512" d="M129 709v245h252v-245h-252zM147 -35l31 686h156l31 -686v-330h-218v330z" />
<glyph unicode="&#xa2;" horiz-adv-x="1024" d="M78 477q0 119 31 211q29 86 92 156q58 65 141 98q90 37 184 37l45 180l162 -45l-41 -164q88 -33 154 -110q59 -72 82 -193h-246q-6 55 -41 90l-135 -559q2 0 6 -1t6 -1h12q27 0 54 10q29 10 45 24.5t35 43.5q10 16 18 59h248q-14 -82 -51 -145.5t-88 -106.5 q-49 -41 -119 -63q-61 -20 -142 -21q-8 0 -19 1.5t-17 1.5q-25 0 -37 2l-47 -197l-166 37l53 213q-102 57 -162 170q-57 108 -57 272zM319 477q0 -51 11 -106q10 -49 26 -84l119 483q-72 -23 -113 -92q-43 -74 -43 -201z" />
<glyph unicode="&#xa3;" horiz-adv-x="1024" d="M59 -43v233q49 25 82 51.5t53.5 59.5t30.5 78q8 39 8 104v33q0 8 -4 33h-170v196h115q-16 61 -22 103q-6 46 -7 80q0 89 31 159q33 76 86 123q55 49 131 74q84 27 168 27q78 0 158 -27q70 -23 125 -76q57 -53 88 -121q33 -72 39 -167h-242q-18 193 -172 192 q-33 0 -70 -14q-35 -14 -55 -37q-23 -27 -35 -55q-12 -31 -12 -66q0 -45 8 -86q12 -55 29 -109h268v-196h-221q0 -4 1 -11.5t1 -9.5v-16q0 -119 -37 -193q-12 -27 -16 -30q-2 -2 -9.5 -12.5l-11.5 -16.5q43 0 90 -8l42 -9t30 -5q23 -4 53 -11q10 -2 56 -10l45 -8 q29 -4 39 -4q80 0 223 74v-248q-111 -51 -217 -51q-74 0 -197 38q-51 16 -100 27q-47 10 -70 10q-126 0 -332 -98z" />
<glyph unicode="&#xa4;" horiz-adv-x="1110" d="M57 354l131 131q-53 102 -53 203q0 106 53 201l-131 135l160 158l131 -131q98 57 207 57q115 0 207 -55l131 129l158 -158l-127 -133q53 -100 53 -203q0 -82 -12.5 -121t-42.5 -82l131 -131l-160 -161l-131 131q-98 -53 -207 -54q-57 0 -106 13q-39 10 -99 43l-133 -133z M360 688q0 -37 17 -76q14 -35 41 -61q28 -28 61 -43q31 -14 76 -14t76 14q34 15 61 43q27 27 41 61q16 39 16.5 76t-16.5 76q-15 37 -43 61q-35 31 -61 43q-31 14 -74 14.5t-74 -14.5q-27 -12 -61 -43q-28 -25 -43 -61q-17 -39 -17 -76z" />
<glyph unicode="&#xa5;" horiz-adv-x="1026" d="M-25 1290h269l268 -491l272 491h269l-318 -553h238v-192h-340v-74h340v-190h-340v-281h-234v281h-344v190h344v74h-344v192h238z" />
<glyph unicode="&#xa6;" horiz-adv-x="518" d="M139 379h219v-764h-219v764zM139 627v764h219v-764h-219z" />
<glyph unicode="&#xa7;" horiz-adv-x="1024" d="M68 571q0 31 10 76q8 39 31 76q27 45 49 68q39 39 69 55q-39 45 -61.5 96t-22.5 100q0 55 27 108.5t76 96.5q55 47 114 70q68 25 150 24q162 0 262 -81q102 -84 131 -236h-244q-14 59 -51 90q-35 29 -92 29q-27 0 -51 -6q-20 -4 -43 -21q-20 -14 -30.5 -28.5t-10.5 -36.5 q0 -27 8 -43.5t35 -42.5q29 -29 74 -60l131 -86l112 -71q59 -37 107 -82q45 -43 78 -105q31 -58 30 -135q0 -43 -10 -76q-12 -41 -33 -76q-18 -31 -53 -69q-27 -29 -69 -55q98 -89 98 -228q0 -70 -26.5 -123t-78.5 -98q-45 -39 -116 -66q-61 -23 -148 -22q-84 0 -147 20 q-68 20 -121 66q-57 47 -90 104q-39 68 -53 148h243q16 -70 60 -103q47 -35 108 -34q35 0 58 8q20 8 40 24q18 14 27 33q8 16 8 41t-14 45q-12 16 -49 47q-23 18 -90 64l-140 86q-49 31 -88 63q-53 45 -71 64q-29 31 -51 57q-23 29 -33 47q-49 83 -49 178zM297 590 q0 -49 43 -104.5t147 -123.5l158 -106q12 8 33 29q18 18 27 34q10 20 16 39q4 12 4 35q0 49 -45 103q-47 57 -154 127l-164 108q-16 -8 -28 -26q-8 -12 -21 -37q-10 -18 -12 -39q-4 -29 -4 -39z" />
<glyph unicode="&#xa8;" horiz-adv-x="665" d="M25 1112v248h233v-248h-233zM410 1112v248h233v-248h-233z" />
<glyph unicode="&#xa9;" horiz-adv-x="1357" d="M6 659q0 135 53 261q51 121 145.5 215t215.5 145q125 53 262 53q88 0 174 -24q80 -23 160 -70q74 -43 137 -106q66 -66 107 -136q41 -72 67 -161q25 -86 25 -177q0 -92 -25 -178q-27 -90 -67 -162q-43 -74 -105 -135q-66 -66 -135 -106q-78 -45 -162 -70 q-86 -25 -176 -24q-137 0 -262 53q-121 51 -215 145q-96 96 -146 213q-53 125 -53 264zM143 659q0 -111 43 -209t115 -169q76 -76 170 -117t209 -41q113 0 207 41t170 117q72 72 114.5 170t42.5 208q0 106 -43 205t-114 170q-76 76 -170 117q-98 43 -207 43q-111 0 -209 -43 t-170 -114.5t-115 -170t-43 -207.5zM322 655q0 90 24 162q23 68 74 121q43 47 115 76q66 27 151 26q70 0 117 -16q55 -20 94 -49q43 -33 70 -78q25 -43 39 -106h-154q-25 127 -168 127q-49 0 -90 -19q-39 -18 -68 -53q-25 -29 -41 -84q-16 -53 -16 -108.5t16 -104.5 q15 -46 43 -80q31 -37 66 -53q41 -18 88 -19q147 0 178 138h154q-65 -270 -332 -271q-80 0 -150 29q-66 27 -112 80q-51 57 -74 123q-24 70 -24 159z" />
<glyph unicode="&#xaa;" horiz-adv-x="737" d="M31 893q0 57 26 98q31 47 80 76q51 31 133 49q80 18 187 19h16q0 41 -8 59q-10 23 -25 35q-16 14 -32 16q-25 4 -39 4q-90 0 -107 -65h-213q14 121 98 178q78 53 226 53q80 0 135 -14.5t96 -48.5q35 -31 60 -88q20 -49 20 -129v-451h-209v59q-43 -33 -86 -53 q-39 -18 -100 -18q-59 0 -103 14q-45 14 -81.5 45t-55 70t-18.5 92zM63 465v151h611v-151h-611zM236 897q0 -23 18 -41q16 -16 59 -16q27 0 41 2q2 0 20.5 2t26.5 4q29 8 43 14q16 8 31 25v98h-39q-96 0 -149 -24q-51 -25 -51 -64z" />
<glyph unicode="&#xab;" horiz-adv-x="1110" d="M104 512l312 449h221l-277 -449l277 -449h-221zM473 512l311 449h222l-275 -449l275 -449h-222z" />
<glyph unicode="&#xac;" horiz-adv-x="1255" d="M174 477v203h905v-447h-202v244h-703z" />
<glyph unicode="&#xad;" horiz-adv-x="1247" d="M207 512v199h835v-199h-835z" />
<glyph unicode="&#xae;" horiz-adv-x="1357" d="M6 659q0 135 53 261q51 121 145.5 215t215.5 145q125 53 262 53q88 0 174 -24q80 -23 160 -70q74 -43 137 -106q66 -66 107 -136q41 -72 67 -161q25 -86 25 -177q0 -92 -25 -178q-27 -90 -67 -162q-43 -74 -105 -135q-66 -66 -135 -106q-78 -45 -162 -70 q-86 -25 -176 -24q-137 0 -262 53q-121 51 -215 145q-96 96 -146 213q-53 125 -53 264zM143 659q0 -111 43 -209t115 -169q76 -76 170 -117t209 -41q113 0 207 41t170 117q72 72 114.5 170t42.5 208q0 106 -43 205t-114 170q-76 76 -170 117q-98 43 -207 43q-111 0 -209 -43 t-170 -114.5t-115 -170t-43 -207.5zM385 279v737h281q295 0 295 -209q0 -172 -148 -209q68 -39 102 -123l82 -196h-161l-60 165q-20 61 -65 97q-41 33 -111 32h-76v-294h-139zM524 700h129q158 0 158 97q0 94 -160 94h-127v-191z" />
<glyph unicode="&#xaf;" horiz-adv-x="997" d="M-10 1579v166h1018v-166h-1018z" />
<glyph unicode="&#xb0;" horiz-adv-x="798" d="M113 1120.5q0 57.5 22 112.5q18 45 64 90q41 41 90 61q59 25 112 25q57 0 110.5 -24.5t92.5 -63.5t60 -90q23 -55 22.5 -110.5t-22.5 -110.5q-22 -52 -62 -92q-41 -41 -90 -62q-55 -23 -111 -22q-57 0 -112 22q-49 20 -90 62q-45 45 -64 90q-22 55 -22 112.5zM291 1120 q0 -25 8 -43q10 -25 23 -37q16 -16 34.5 -24t44.5 -8q25 0 43.5 8t34.5 24q15 15 25 37q8 18 8 43q0 27 -8 45.5t-24.5 35t-35 24.5t-43.5 8q-47 0 -79 -33q-31 -31 -31 -80z" />
<glyph unicode="&#xb1;" horiz-adv-x="1165" d="M109 0v225h948v-225h-948zM109 612v226h360v360h229v-360h359v-226h-359v-360h-229v360h-360z" />
<glyph unicode="&#xb2;" horiz-adv-x="665" d="M10 653q16 100 76 172q66 78 178 146q51 31 92 59q23 16 52 45q18 18 24 36.5t6 39.5q0 80 -102 80q-101 0 -123 -92h-186q49 248 311 247q74 0 123 -16q57 -18 94 -47q35 -27 57 -72q20 -41 20.5 -92t-14.5 -88q-12 -31 -43 -70q-27 -33 -57.5 -55t-68.5 -45l-52 -29 q-2 -2 -15 -10t-22 -12q-18 -10 -51 -37h328v-160h-627z" />
<glyph unicode="&#xb3;" horiz-adv-x="665" d="M31 844h174q12 -29 43 -41t71 -12q119 0 119 102q0 37 -24.5 49t-85.5 12h-76v142q47 0 78 6q27 6 49 16q14 8 22 27q6 14 7 33q0 55 -91 55q-6 0 -16 -1t-14 -1q-18 0 -31 -6q-16 -8 -23 -15q-10 -10 -16 -24h-174q18 111 88 155q72 47 188 48q61 0 117 -17 q43 -12 86 -41q37 -25 55.5 -61.5t18.5 -77.5q0 -104 -82 -156q115 -47 115 -172q0 -51 -21 -92q-20 -39 -61 -72q-37 -29 -94 -47q-49 -16 -127 -16q-129 0 -199 49q-71 49 -96 158z" />
<glyph unicode="&#xb4;" horiz-adv-x="675" d="M127 1092l139 274h285l-217 -274h-207z" />
<glyph unicode="&#xb5;" horiz-adv-x="1026" d="M98 -338v1292h236v-635q0 -133 135 -133q27 0 49 7q22 6 43 18q25 14 45 35q22 22 49 55v653h238v-718q0 -35 20.5 -47.5t73.5 -12.5v-186h-121q-135 0 -186 88q-55 -51 -117 -76q-53 -23 -127 -22q-49 0 -102 16v-334h-236z" />
<glyph unicode="&#x3bc;" horiz-adv-x="1026" d="M98 -338v1292h236v-635q0 -133 135 -133q27 0 49 7q22 6 43 18q25 14 45 35q22 22 49 55v653h238v-718q0 -35 20.5 -47.5t73.5 -12.5v-186h-121q-135 0 -186 88q-55 -51 -117 -76q-53 -23 -127 -22q-49 0 -102 16v-334h-236z" />
<glyph unicode="&#xb6;" horiz-adv-x="991" d="M-2 932q0 94 29 164q29 72 88 123q59 53 135 75q86 27 180 27h561v-199h-114v-1460h-201v1460h-146v-1460h-198v897q-84 10 -146 43q-63 35 -104 82t-64 113q-20 61 -20 135z" />
<glyph unicode="&#xb7;" horiz-adv-x="581" d="M94 772q0 37 17 76q14 35 43 63q27 27 61.5 41.5t75.5 14.5t76 -15q25 -10 61 -43q28 -25 43 -61q16 -39 16 -76q0 -35 -16 -74q-12 -31 -43 -61.5t-61 -42.5q-39 -16 -76 -16t-76 16q-35 14 -61 41q-29 29 -43 63q-17 39 -17 74z" />
<glyph unicode="&#xb8;" horiz-adv-x="665" d="M113 -238q12 -4 22 -6q6 -2 16.5 -3t16.5 -1q12 -2 33 -2q6 0 15 -1t13 -1q74 0 74 53q0 49 -123 49v177h185v-90q53 -6 75 -17q27 -10 47 -31q18 -18 25 -41q6 -25 6 -57q0 -39 -16 -76q-16 -35 -53 -59q-39 -25 -91 -37q-55 -12 -135 -12h-24q-6 0 -14.5 1t-14.5 1 t-16.5 1t-16.5 1q-12 0 -24 4v147z" />
<glyph unicode="&#xb9;" horiz-adv-x="665" d="M63 1022v147q242 0 242 172h146v-733h-181v445q-74 -31 -207 -31z" />
<glyph unicode="&#xba;" horiz-adv-x="727" d="M29 1040q0 88 24.5 156t69.5 119q43 49 104 74q68 27 138 26q76 0 135 -26q63 -29 104 -76q47 -53 70 -119q25 -72 24 -154q0 -89 -24 -159q-23 -66 -70 -119q-43 -49 -104.5 -73.5t-134.5 -24.5q-78 0 -139.5 24.5t-104.5 73.5t-68 119q-24 70 -24 159zM59 465v151h611 v-151h-611zM244 1040q0 -182 120.5 -182t120.5 182q0 176 -120.5 176t-120.5 -176z" />
<glyph unicode="&#xbb;" horiz-adv-x="1110" d="M104 63l275 449l-275 449h222l311 -449l-311 -449h-222zM473 63l277 449l-277 449h221l312 -449l-312 -449h-221z" />
<glyph unicode="&#xbc;" horiz-adv-x="1540" d="M84 1022v147q242 0 242 172h143v-679h-178v391q-74 -31 -207 -31zM176 0l940 1321h203l-940 -1321h-203zM801 131v137l389 432h137v-411h90v-158h-90v-131h-168v131h-358zM985 289h174v190z" />
<glyph unicode="&#xbd;" horiz-adv-x="1540" d="M63 1022v147q242 0 242 172h146v-733h-181v445q-74 -31 -207 -31zM156 0l940 1321h202l-940 -1321h-202zM858 0q16 98 78 172q68 82 176 145q51 31 92 60q37 27 53 43q16 18 25 39q6 18 6 39q0 80 -102 80q-101 0 -123 -93h-186q49 248 309 248q76 0 125 -16 q55 -18 92 -47q39 -29 59 -72q20 -41 21 -92q0 -47 -17 -90q-12 -31 -41 -68q-23 -29 -59 -55q-31 -23 -70 -45q-18 -10 -35.5 -21.5t-35.5 -21.5q-41 -25 -68 -45h328v-160h-627z" />
<glyph unicode="&#xbe;" horiz-adv-x="1540" d="M31 799h174q12 -29 43 -41q35 -14 71 -15q119 0 119 103q0 37 -24 49q-29 14 -86 14h-76v142q47 0 78 6q27 6 49 16q16 8 22.5 24.5t6.5 35.5q0 55 -91 55q-6 0 -16 -1t-14 -1q-18 0 -31 -6q-16 -8 -23 -15q-10 -10 -16 -26h-174q18 111 88 155q72 47 188 47 q68 0 117 -14q43 -12 86 -41q37 -25 55.5 -61.5t18.5 -77.5q0 -106 -82 -158q115 -47 115 -170q0 -51 -21 -92q-20 -39 -61 -72q-37 -29 -94 -47q-49 -16 -127 -16q-129 0 -199 49q-71 49 -96 158zM225 0l940 1321h203l-940 -1321h-203zM801 131v137l389 432h137v-411h90 v-158h-90v-131h-168v131h-358zM985 289h174v190z" />
<glyph unicode="&#xbf;" horiz-adv-x="1024" d="M59 -18q0 59 15 102q18 53 39 90q23 41 59 80q41 45 78 74q59 51 74 67q31 35 38 54q20 41 21 188h225v-117q0 -86 -39 -164q-39 -80 -143 -166q-39 -31 -70 -65q-20 -25 -37 -51q-14 -25 -16 -41q-4 -25 -4 -41q0 -33 14 -72q10 -29 39 -57q25 -25 60 -37q39 -14 75 -14 q162 0 199 229h242q-10 -100 -45 -178q-37 -82 -95 -135q-55 -53 -133 -84q-77 -31 -166 -31q-98 0 -175.5 26.5t-135.5 77.5q-59 51 -88 117q-31 68 -31 148zM367 709v245h247v-245h-247z" />
<glyph unicode="&#xc0;" horiz-adv-x="1288" d="M4 0l508 1321h236l536 -1321h-274l-144 379h-463l-137 -379h-262zM477 588h311l-159 418zM344 1663h284l137 -274h-204z" />
<glyph unicode="&#xc1;" horiz-adv-x="1288" d="M4 0l508 1321h236l536 -1321h-274l-144 379h-463l-137 -379h-262zM477 588h311l-159 418zM418 1389l139 274h285l-217 -274h-207z" />
<glyph unicode="&#xc2;" horiz-adv-x="1288" d="M4 0l508 1321h236l536 -1321h-274l-144 379h-463l-137 -379h-262zM477 588h311l-159 418zM297 1389l234 290h199l233 -290h-242l-92 127l-90 -127h-242z" />
<glyph unicode="&#xc3;" horiz-adv-x="1288" d="M4 0l508 1321h236l536 -1321h-274l-144 379h-463l-137 -379h-262zM477 588h311l-159 418zM282 1407q0 47 17 92q14 41 45 78q29 35 65 55q41 23 86 23q14 0 51 -10q45 -12 68 -21l62 -18q31 -10 38 -11q18 0 29 2q14 2 24.5 8.5t20.5 18.5q8 10 10 31h189 q0 -53 -14.5 -94t-45.5 -78q-27 -33 -65.5 -53.5t-85.5 -20.5q-25 0 -55 8l-66 19q-14 4 -30.5 10t-30.5 10q-25 8 -37 8q-18 0 -29 -2q-16 -4 -27 -8q-8 -4 -18 -18q-6 -10 -10 -29h-191z" />
<glyph unicode="&#xc4;" horiz-adv-x="1288" d="M4 0l508 1321h236l536 -1321h-274l-144 379h-463l-137 -379h-262zM477 588h311l-159 418zM324 1409v248h233v-248h-233zM709 1409v248h233v-248h-233z" />
<glyph unicode="&#xc5;" horiz-adv-x="1288" d="M4 0l508 1321h236l536 -1321h-274l-144 379h-463l-137 -379h-262zM451 1519.5q0 30.5 14 69.5q10 29 36.5 55.5t57.5 41t70 14.5t69 -14q27 -12 56 -41q20 -20 39 -58q14 -29 14 -67q0 -37 -14 -68q-16 -37 -37 -57q-23 -23 -58 -39q-31 -14 -69 -15q-31 0 -70 15 q-33 12 -57.5 36.5t-36.5 57.5q-14 39 -14 69.5zM477 588h311l-159 418zM559 1519.5q0 -28.5 20.5 -49t49 -20.5t49 20.5t20.5 49t-20.5 49t-49 20.5t-49 -20.5t-20.5 -49z" />
<glyph unicode="&#xc6;" horiz-adv-x="1853" d="M4 0l764 1321h958v-227h-618v-299h571v-226h-571v-342h647v-227h-893v358h-375l-198 -358h-285zM610 586h252v454z" />
<glyph unicode="&#xc7;" horiz-adv-x="1363" d="M100 662q0 154 43 280q41 123 125 215q78 86 195 137q109 47 256 47q100 0 192 -30q96 -33 164 -88q74 -61 121 -138q45 -74 66 -180h-250q-8 43 -37 90q-23 37 -64 68q-35 27 -88 43q-45 14 -102 14q-86 0 -154 -30q-70 -31 -116 -89q-49 -59 -74 -143 q-27 -92 -27 -196.5t27 -196.5q25 -88 74 -146q51 -59 116 -90q68 -31 150 -30q120 0 196.5 61.5t98.5 177.5h254q-15 -111 -62 -196q-45 -84 -117 -144q-72 -57 -165 -90q-86 -29 -203 -28q-150 0 -258 47q-117 51 -195 137q-80 89 -123 215t-43 283zM574 -238q12 -4 22 -6 q6 -2 16.5 -3t16.5 -1q12 -2 33 -2q6 0 15 -1t13 -1q74 0 74 53q0 49 -123 49v177h185v-90q53 -6 75 -17q27 -10 47 -31q18 -18 25 -41q6 -25 6 -57q0 -39 -16 -76q-16 -35 -53 -59q-39 -25 -91 -37q-55 -12 -135 -12h-24q-6 0 -14.5 1t-14.5 1t-16.5 1t-16.5 1q-12 0 -24 4 v147z" />
<glyph unicode="&#xc8;" horiz-adv-x="1267" d="M160 0v1321h981v-227h-735v-299h688v-226h-688v-342h763v-227h-1009zM367 1663h284l137 -274h-204z" />
<glyph unicode="&#xc9;" horiz-adv-x="1267" d="M160 0v1321h981v-227h-735v-299h688v-226h-688v-342h763v-227h-1009zM426 1389l139 274h285l-217 -274h-207z" />
<glyph unicode="&#xca;" horiz-adv-x="1267" d="M160 0v1321h981v-227h-735v-299h688v-226h-688v-342h763v-227h-1009zM335 1389l234 290h199l233 -290h-242l-92 127l-90 -127h-242z" />
<glyph unicode="&#xcb;" horiz-adv-x="1267" d="M160 0v1321h981v-227h-735v-299h688v-226h-688v-342h763v-227h-1009zM357 1409v248h233v-248h-233zM742 1409v248h233v-248h-233z" />
<glyph unicode="&#xcc;" horiz-adv-x="563" d="M160 0v1321h246v-1321h-246zM-12 1663h284l137 -274h-204z" />
<glyph unicode="&#xcd;" horiz-adv-x="563" d="M160 0v1321h246v-1321h-246zM127 1389l139 274h285l-217 -274h-207z" />
<glyph unicode="&#xce;" horiz-adv-x="563" d="M160 0v1321h246v-1321h-246zM-43 1389l234 290h199l233 -290h-242l-92 127l-90 -127h-242z" />
<glyph unicode="&#xcf;" horiz-adv-x="563" d="M160 0v1321h246v-1321h-246zM-24 1409v248h233v-248h-233zM361 1409v248h233v-248h-233z" />
<glyph unicode="&#xd0;" horiz-adv-x="1368" d="M6 549v225h154v547h436q674 0 674 -653q0 -668 -674 -668h-436v549h-154zM408 227h186q127 0 205 29t131 88q45 51 67 137q20 80 21 187q0 98 -19 178q-18 76 -69 135q-51 57 -129 84q-86 29 -207 29h-186v-320h292v-225h-292v-322z" />
<glyph unicode="&#xd1;" horiz-adv-x="1376" d="M160 0v1321h233l586 -885v885h240v-1321h-234l-588 883v-883h-237zM323 1407q0 47 17 92q14 41 45 78q29 35 65 55q41 23 86 23q14 0 51 -10q45 -12 68 -21l62 -18q31 -10 38 -11q18 0 29 2q14 2 24.5 8.5t20.5 18.5q8 10 10 31h189q0 -53 -14.5 -94t-45.5 -78 q-27 -33 -65.5 -53.5t-85.5 -20.5q-25 0 -55 8l-66 19q-14 4 -30.5 10t-30.5 10q-25 8 -37 8q-18 0 -29 -2q-16 -4 -27 -8q-8 -4 -18 -18q-6 -10 -10 -29h-191z" />
<glyph unicode="&#xd2;" horiz-adv-x="1468" d="M100 661.5q0 149.5 47 278.5q45 125 134 215q88 92 200.5 139t253.5 47q137 0 254 -49q115 -49 201 -137q88 -90 133 -215q47 -129 47 -278q0 -147 -47 -277q-45 -123 -131 -215q-86 -94 -201 -141q-117 -49 -256 -49t-256 49t-200 139q-86 92 -132 215 q-47 129 -47 278.5zM350 662q0 -104 29 -194.5t80 -148.5q55 -61 121 -90q71 -31 153 -30q86 0 155.5 30.5t123.5 89.5q47 53 78 148q29 90 28.5 194.5t-28.5 194.5q-29 88 -80.5 145.5t-121 88t-151.5 30.5q-86 0 -155 -30q-66 -29 -121 -91q-51 -57 -80 -145 q-31 -96 -31 -192zM449 1663h284l137 -274h-204z" />
<glyph unicode="&#xd3;" horiz-adv-x="1468" d="M100 661.5q0 149.5 47 278.5q45 125 134 215q88 92 200.5 139t253.5 47q137 0 254 -49q115 -49 201 -137q88 -90 133 -215q47 -129 47 -278q0 -147 -47 -277q-45 -123 -131 -215q-86 -94 -201 -141q-117 -49 -256 -49t-256 49t-200 139q-86 92 -132 215 q-47 129 -47 278.5zM350 662q0 -104 29 -194.5t80 -148.5q55 -61 121 -90q71 -31 153 -30q86 0 155.5 30.5t123.5 89.5q47 53 78 148q29 90 28.5 194.5t-28.5 194.5q-29 88 -80.5 145.5t-121 88t-151.5 30.5q-86 0 -155 -30q-66 -29 -121 -91q-51 -57 -80 -145 q-31 -96 -31 -192zM547 1389l139 274h285l-217 -274h-207z" />
<glyph unicode="&#xd4;" horiz-adv-x="1468" d="M100 661.5q0 149.5 47 278.5q45 125 134 215q88 92 200.5 139t253.5 47q137 0 254 -49q115 -49 201 -137q88 -90 133 -215q47 -129 47 -278q0 -147 -47 -277q-45 -123 -131 -215q-86 -94 -201 -141q-117 -49 -256 -49t-256 49t-200 139q-86 92 -132 215 q-47 129 -47 278.5zM350 662q0 -104 29 -194.5t80 -148.5q55 -61 121 -90q71 -31 153 -30q86 0 155.5 30.5t123.5 89.5q47 53 78 148q29 90 28.5 194.5t-28.5 194.5q-29 88 -80.5 145.5t-121 88t-151.5 30.5q-86 0 -155 -30q-66 -29 -121 -91q-51 -57 -80 -145 q-31 -96 -31 -192zM405 1389l234 290h199l233 -290h-242l-92 127l-90 -127h-242z" />
<glyph unicode="&#xd5;" horiz-adv-x="1468" d="M100 661.5q0 149.5 47 278.5q45 125 134 215q88 92 200.5 139t253.5 47q137 0 254 -49q115 -49 201 -137q88 -90 133 -215q47 -129 47 -278q0 -147 -47 -277q-45 -123 -131 -215q-86 -94 -201 -141q-117 -49 -256 -49t-256 49t-200 139q-86 92 -132 215 q-47 129 -47 278.5zM350 662q0 -104 29 -194.5t80 -148.5q55 -61 121 -90q71 -31 153 -30q86 0 155.5 30.5t123.5 89.5q47 53 78 148q29 90 28.5 194.5t-28.5 194.5q-29 88 -80.5 145.5t-121 88t-151.5 30.5q-86 0 -155 -30q-66 -29 -121 -91q-51 -57 -80 -145 q-31 -96 -31 -192zM385 1407q0 47 17 92q14 41 45 78q29 35 65 55q41 23 86 23q14 0 51 -10q45 -12 68 -21l62 -18q31 -10 38 -11q18 0 29 2q14 2 24.5 8.5t20.5 18.5q8 10 10 31h189q0 -53 -14.5 -94t-45.5 -78q-27 -33 -65.5 -53.5t-85.5 -20.5q-25 0 -55 8l-66 19 q-14 4 -30.5 10t-30.5 10q-25 8 -37 8q-18 0 -29 -2q-16 -4 -27 -8q-8 -4 -18 -18q-6 -10 -10 -29h-191z" />
<glyph unicode="&#xd6;" horiz-adv-x="1468" d="M100 661.5q0 149.5 47 278.5q45 125 134 215q88 92 200.5 139t253.5 47q137 0 254 -49q115 -49 201 -137q88 -90 133 -215q47 -129 47 -278q0 -147 -47 -277q-45 -123 -131 -215q-86 -94 -201 -141q-117 -49 -256 -49t-256 49t-200 139q-86 92 -132 215 q-47 129 -47 278.5zM350 662q0 -104 29 -194.5t80 -148.5q55 -61 121 -90q71 -31 153 -30q86 0 155.5 30.5t123.5 89.5q47 53 78 148q29 90 28.5 194.5t-28.5 194.5q-29 88 -80.5 145.5t-121 88t-151.5 30.5q-86 0 -155 -30q-66 -29 -121 -91q-51 -57 -80 -145 q-31 -96 -31 -192zM424 1409v248h233v-248h-233zM809 1409v248h233v-248h-233z" />
<glyph unicode="&#xd7;" horiz-adv-x="1075" d="M104 379l261 258l-261 260l154 154l258 -260l260 260l154 -154l-258 -260l258 -258l-154 -156l-260 260l-258 -260z" />
<glyph unicode="&#xd8;" horiz-adv-x="1468" d="M76 63l149 168q-55 78 -92 195q-33 104 -33 236q0 150 47 278q45 125 134 215q88 92 200.5 139t253.5 47q115 0 203 -28q98 -31 172 -88l143 159l148 -122l-156 -175q61 -86 92 -192q33 -115 33 -233q0 -147 -47 -277q-45 -123 -131 -215q-86 -94 -201 -141 q-117 -49 -256 -49q-115 0 -203 28q-106 35 -174 86l-141 -157zM350 662q0 -72 12 -130q12 -59 33 -108l561 627q-90 70 -219 69q-86 0 -155 -30q-66 -29 -121 -91q-51 -57 -80 -145q-31 -96 -31 -192zM514 268q47 -35 102 -53q49 -16 117 -16q86 0 155.5 30.5t123.5 89.5 q47 53 78 148q29 90 28 195q0 78 -10 126q-14 66 -33 109z" />
<glyph unicode="&#xd9;" horiz-adv-x="1376" d="M160 563v758h246v-756q0 -104 20 -182q18 -74 53 -110.5t90 -53.5q49 -14 119 -14q74 0 123 14q53 16 88 53t53 111q18 72 19 182v756h248v-758q0 -138 -25 -246q-27 -115 -84 -184q-63 -76 -161.5 -114.5t-260.5 -38.5q-125 0 -211 24q-90 27 -147 68q-59 43 -92 100 q-33 55 -52 123q-20 68 -22 133q-4 90 -4 135zM396 1663h284l137 -274h-204z" />
<glyph unicode="&#xda;" horiz-adv-x="1376" d="M160 563v758h246v-756q0 -104 20 -182q18 -74 53 -110.5t90 -53.5q49 -14 119 -14q74 0 123 14q53 16 88 53t53 111q18 72 19 182v756h248v-758q0 -138 -25 -246q-27 -115 -84 -184q-63 -76 -161.5 -114.5t-260.5 -38.5q-125 0 -211 24q-90 27 -147 68q-59 43 -92 100 q-33 55 -52 123q-20 68 -22 133q-4 90 -4 135zM555 1389l139 274h285l-217 -274h-207z" />
<glyph unicode="&#xdb;" horiz-adv-x="1376" d="M160 563v758h246v-756q0 -104 20 -182q18 -74 53 -110.5t90 -53.5q49 -14 119 -14q74 0 123 14q53 16 88 53t53 111q18 72 19 182v756h248v-758q0 -138 -25 -246q-27 -115 -84 -184q-63 -76 -161.5 -114.5t-260.5 -38.5q-125 0 -211 24q-90 27 -147 68q-59 43 -92 100 q-33 55 -52 123q-20 68 -22 133q-4 90 -4 135zM354 1389l234 290h199l233 -290h-242l-92 127l-90 -127h-242z" />
<glyph unicode="&#xdc;" horiz-adv-x="1376" d="M160 563v758h246v-756q0 -104 20 -182q18 -74 53 -110.5t90 -53.5q49 -14 119 -14q74 0 123 14q53 16 88 53t53 111q18 72 19 182v756h248v-758q0 -138 -25 -246q-27 -115 -84 -184q-63 -76 -161.5 -114.5t-260.5 -38.5q-125 0 -211 24q-90 27 -147 68q-59 43 -92 100 q-33 55 -52 123q-20 68 -22 133q-4 90 -4 135zM377 1409v248h233v-248h-233zM762 1409v248h233v-248h-233z" />
<glyph unicode="&#xdd;" horiz-adv-x="1341" d="M25 1321h299l348 -535l348 535h297l-522 -766v-555h-246v555zM526 1389l139 274h285l-217 -274h-207z" />
<glyph unicode="&#xde;" horiz-adv-x="1273" d="M160 0v1321h246v-246h260q113 0 196 -16q98 -18 166 -64q72 -47 115 -123q43 -77 43 -196q0 -213 -129 -317.5t-379 -104.5h-272v-254h-246zM406 479h276q68 0 115 12.5t77.5 37t45 59.5t14.5 84q0 57 -21 90q-25 39 -57 55q-37 18 -82 25q-61 8 -96 8h-272v-371z" />
<glyph unicode="&#xdf;" horiz-adv-x="1153" d="M100 0v897q0 444 400 444q109 0 176 -22.5t117 -65.5q43 -37 65 -92q20 -49 21 -110q0 -47 -19 -90q-8 -20 -43 -84l-43 -76q-18 -37 -18 -72q0 -6 4 -27q4 -16 18 -34q23 -27 41 -41q49 -39 72 -54q51 -35 90 -69q37 -35 57 -66q18 -29 29 -67q8 -31 8 -74 q0 -65 -24 -123q-25 -57 -70 -100q-51 -47 -109 -70q-65 -25 -141 -24q-70 0 -119 16q-57 18 -98 51q-43 34 -74 80q-29 43 -41 106h236q10 -31 33 -43q25 -12 59 -12q55 0 82 31q29 33 29 76q0 14 -9 39q-4 10 -22 32q-18 20 -41 37q-12 8 -66 41q-59 37 -84 58 q-35 29 -55 57q-25 35 -33 65q-10 37 -10 80q0 23 10 54q6 18 27 59q4 6 9 19.5t10.5 23.5t11.5 18l32 62q16 33 25 57q10 31 10 47q0 18 -10 39q-10 18 -29 35q-18 15 -49 25q-27 8 -69 8q-41 0 -66 -11q-31 -12 -51 -38q-20 -25 -33 -78q-10 -41 -10 -123v-891h-236z" />
<glyph unicode="&#xe0;" horiz-adv-x="1056" d="M80 270q0 348 571 348h37q0 37 -6 68q-6 33 -23 51q-18 20 -53 31q-37 10 -90 10q-68 0 -113 -22q-43 -20 -57 -82h-240q43 305 420 305q78 0 166 -18q74 -16 125 -58q49 -41 78 -114.5t29 -182.5v-606h-236v49q-63 -37 -125 -53q-68 -18 -143.5 -18.5t-135 20 t-106.5 61.5q-49 43 -72 93q-26 59 -26 118zM319 279q0 -47 39 -74q41 -29 107 -29q68 0 127 27q61 27 96 78v145h-67q-302 0 -302 -147zM242 1366h284l137 -274h-204z" />
<glyph unicode="&#xe1;" horiz-adv-x="1056" d="M80 270q0 348 571 348h37q0 37 -6 68q-6 33 -23 51q-18 20 -53 31q-37 10 -90 10q-68 0 -113 -22q-43 -20 -57 -82h-240q43 305 420 305q78 0 166 -18q74 -16 125 -58q49 -41 78 -114.5t29 -182.5v-606h-236v49q-63 -37 -125 -53q-68 -18 -143.5 -18.5t-135 20 t-106.5 61.5q-49 43 -72 93q-26 59 -26 118zM319 279q0 -47 39 -74q41 -29 107 -29q68 0 127 27q61 27 96 78v145h-67q-302 0 -302 -147zM346 1092l139 274h285l-217 -274h-207z" />
<glyph unicode="&#xe2;" horiz-adv-x="1056" d="M80 270q0 348 571 348h37q0 37 -6 68q-6 33 -23 51q-18 20 -53 31q-37 10 -90 10q-68 0 -113 -22q-43 -20 -57 -82h-240q43 305 420 305q78 0 166 -18q74 -16 125 -58q49 -41 78 -114.5t29 -182.5v-606h-236v49q-63 -37 -125 -53q-68 -18 -143.5 -18.5t-135 20 t-106.5 61.5q-49 43 -72 93q-26 59 -26 118zM319 279q0 -47 39 -74q41 -29 107 -29q68 0 127 27q61 27 96 78v145h-67q-302 0 -302 -147zM190 1092l234 290h199l233 -290h-242l-92 127l-90 -127h-242z" />
<glyph unicode="&#xe3;" horiz-adv-x="1056" d="M80 270q0 348 571 348h37q0 37 -6 68q-6 33 -23 51q-18 20 -53 31q-37 10 -90 10q-68 0 -113 -22q-43 -20 -57 -82h-240q43 305 420 305q78 0 166 -18q74 -16 125 -58q49 -41 78 -114.5t29 -182.5v-606h-236v49q-63 -37 -125 -53q-68 -18 -143.5 -18.5t-135 20 t-106.5 61.5q-49 43 -72 93q-26 59 -26 118zM319 279q0 -47 39 -74q41 -29 107 -29q68 0 127 27q61 27 96 78v145h-67q-302 0 -302 -147zM159 1110q0 47 17 92q14 41 45 78q29 35 65 55q41 23 86 23q14 0 51 -10q45 -12 68 -21l62 -18q31 -10 38 -11q18 0 29 2 q14 2 24.5 8.5t20.5 18.5q8 10 10 31h189q0 -53 -14.5 -94t-45.5 -78q-27 -33 -65.5 -53.5t-85.5 -20.5q-25 0 -55 8l-66 19q-14 4 -30.5 10t-30.5 10q-25 8 -37 8q-18 0 -29 -2q-16 -4 -27 -8q-8 -4 -18 -18q-6 -10 -10 -29h-191z" />
<glyph unicode="&#xe4;" horiz-adv-x="1056" d="M80 270q0 348 571 348h37q0 37 -6 68q-6 33 -23 51q-18 20 -53 31q-37 10 -90 10q-68 0 -113 -22q-43 -20 -57 -82h-240q43 305 420 305q78 0 166 -18q74 -16 125 -58q49 -41 78 -114.5t29 -182.5v-606h-236v49q-63 -37 -125 -53q-68 -18 -143.5 -18.5t-135 20 t-106.5 61.5q-49 43 -72 93q-26 59 -26 118zM319 279q0 -47 39 -74q41 -29 107 -29q68 0 127 27q61 27 96 78v145h-67q-302 0 -302 -147zM203 1112v248h233v-248h-233zM588 1112v248h233v-248h-233z" />
<glyph unicode="&#xe5;" horiz-adv-x="1056" d="M80 270q0 348 571 348h37q0 37 -6 68q-6 33 -23 51q-18 20 -53 31q-37 10 -90 10q-68 0 -113 -22q-43 -20 -57 -82h-240q43 305 420 305q78 0 166 -18q74 -16 125 -58q49 -41 78 -114.5t29 -182.5v-606h-236v49q-63 -37 -125 -53q-68 -18 -143.5 -18.5t-135 20 t-106.5 61.5q-49 43 -72 93q-26 59 -26 118zM319 279q0 -47 39 -74q41 -29 107 -29q68 0 127 27q61 27 96 78v145h-67q-302 0 -302 -147zM344 1175.5q0 30.5 14 69.5q10 29 37 55q29 29 56 41q31 14 69.5 14.5t69.5 -14t57 -41.5q20 -20 39 -57q14 -29 14 -67q0 -37 -14 -68 q-14 -35 -39 -57q-25 -25 -55.5 -39.5t-71.5 -14.5q-31 0 -69 15q-29 10 -56 37q-25 25 -37 57q-14 39 -14 69.5zM453 1175.5q0 -28.5 20.5 -49t46.5 -20.5q31 0 51.5 20.5t20.5 49t-20.5 49t-51.5 20.5q-27 0 -47 -20.5t-20 -49z" />
<glyph unicode="&#xe6;" horiz-adv-x="1640" d="M84 270q0 94 29 154q33 68 94 108q63 43 164 64q106 23 243 22h39q0 37 -6 68q-6 35 -18 51q-14 20 -41 30.5t-68 10.5q-68 0 -112 -22q-43 -20 -58 -82h-239q43 305 419 305q98 0 166 -18q70 -18 115 -68q51 41 119 63q72 23 147 23q100 0 186.5 -35t143.5 -98 q59 -66 90 -158q33 -98 33 -211v-74h-637q37 -227 201 -227q31 0 55.5 8.5t50.5 24.5q20 12 41 37q12 16 25 53h247q-18 -78 -57 -137q-43 -68 -92 -103q-55 -40 -123 -61q-63 -20 -147 -21q-109 0 -195 37q-84 37 -143 105q-37 -43 -82 -72q-41 -27 -90 -43 q-53 -18 -86 -22q-29 -4 -74 -5q-76 0 -135.5 20.5t-106.5 61.5q-49 43 -71 93q-27 59 -27 118zM324 279q0 -47 38 -74q41 -29 107 -29q25 0 57 8q31 8 49.5 18.5t40.5 33.5q12 12 37 45v145h-69q-70 0 -125 -10q-51 -10 -80 -27q-31 -18 -43 -45q-12 -28 -12 -65zM897 602 h379q-20 86 -75.5 131t-123.5 45q-70 0 -115 -45t-65 -131z" />
<glyph unicode="&#xe7;" horiz-adv-x="980" d="M80 477q0 121 33 211q35 94 92 157.5t143 98.5t187 35q74 0 141 -23q65 -22 117 -61q47 -37 88 -104q35 -59 51 -144h-246q-10 72 -51 101q-43 31 -100 30q-46 0 -86 -18q-37 -16 -68 -58q-27 -35 -43 -94t-16 -130.5t16 -131.5q15 -55 43 -92q31 -41 68 -57 q45 -20 86 -21q25 0 51 10q33 12 47 25q16 14 35 43q10 16 18 59h246q-14 -82 -51 -145.5t-88 -106.5q-49 -41 -117 -63q-61 -20 -141 -21q-104 0 -185 33q-84 35 -143.5 96.5t-93.5 157.5q-33 90 -33 213zM365 -238q12 -4 22 -6q6 -2 16.5 -3t16.5 -1q12 -2 33 -2 q6 0 15 -1t13 -1q74 0 74 53q0 49 -123 49v177h185v-90q53 -6 75 -17q27 -10 47 -31q18 -18 25 -41q6 -25 6 -57q0 -39 -16 -76q-16 -35 -53 -59q-39 -25 -91 -37q-55 -12 -135 -12h-24q-6 0 -14.5 1t-14.5 1t-16.5 1t-16.5 1q-12 0 -24 4v147z" />
<glyph unicode="&#xe8;" d="M80 477q0 119 33 209q35 96 94 158q68 70 141 100q86 35 184 35q102 0 189 -35q83 -34 141 -98q63 -70 92 -158q31 -92 31 -211v-74h-657q18 -115 78 -170q61 -57 145 -57q29 0 53.5 8.5t50.5 24.5q20 12 41 37q16 18 27 53h246q-20 -82 -56 -137q-43 -66 -94 -103 q-55 -40 -123 -61q-63 -20 -145 -21q-109 0 -193 33q-86 34 -147 99q-63 66 -96 157q-35 94 -35 211zM334 602h397q-20 88 -74 131q-55 45 -125 45q-68 0 -123 -45t-75 -131zM242 1366h284l137 -274h-204z" />
<glyph unicode="&#xe9;" d="M80 477q0 119 33 209q35 96 94 158q68 70 141 100q86 35 184 35q102 0 189 -35q83 -34 141 -98q63 -70 92 -158q31 -92 31 -211v-74h-657q18 -115 78 -170q61 -57 145 -57q29 0 53.5 8.5t50.5 24.5q20 12 41 37q16 18 27 53h246q-20 -82 -56 -137q-43 -66 -94 -103 q-55 -40 -123 -61q-63 -20 -145 -21q-109 0 -193 33q-86 34 -147 99q-63 66 -96 157q-35 94 -35 211zM334 602h397q-20 88 -74 131q-55 45 -125 45q-68 0 -123 -45t-75 -131zM387 1092l139 274h285l-217 -274h-207z" />
<glyph unicode="&#xea;" d="M80 477q0 119 33 209q35 96 94 158q68 70 141 100q86 35 184 35q102 0 189 -35q83 -34 141 -98q63 -70 92 -158q31 -92 31 -211v-74h-657q18 -115 78 -170q61 -57 145 -57q29 0 53.5 8.5t50.5 24.5q20 12 41 37q16 18 27 53h246q-20 -82 -56 -137q-43 -66 -94 -103 q-55 -40 -123 -61q-63 -20 -145 -21q-109 0 -193 33q-86 34 -147 99q-63 66 -96 157q-35 94 -35 211zM334 602h397q-20 88 -74 131q-55 45 -125 45q-68 0 -123 -45t-75 -131zM190 1092l234 290h199l233 -290h-242l-92 127l-90 -127h-242z" />
<glyph unicode="&#xeb;" d="M80 477q0 119 33 209q35 96 94 158q68 70 141 100q86 35 184 35q102 0 189 -35q83 -34 141 -98q63 -70 92 -158q31 -92 31 -211v-74h-657q18 -115 78 -170q61 -57 145 -57q29 0 53.5 8.5t50.5 24.5q20 12 41 37q16 18 27 53h246q-20 -82 -56 -137q-43 -66 -94 -103 q-55 -40 -123 -61q-63 -20 -145 -21q-109 0 -193 33q-86 34 -147 99q-63 66 -96 157q-35 94 -35 211zM334 602h397q-20 88 -74 131q-55 45 -125 45q-68 0 -123 -45t-75 -131zM220 1112v248h233v-248h-233zM605 1112v248h233v-248h-233z" />
<glyph unicode="&#xec;" horiz-adv-x="503" d="M-14 1366h284l138 -274h-205zM135 0v954h234v-954h-234z" />
<glyph unicode="&#xed;" horiz-adv-x="503" d="M98 1092l138 274h284l-217 -274h-205zM135 0v954h234v-954h-234z" />
<glyph unicode="&#xee;" horiz-adv-x="503" d="M-84 1092l236 290h196l236 -290h-242l-92 127l-90 -127h-244zM135 0v954h234v-954h-234z" />
<glyph unicode="&#xef;" horiz-adv-x="503" d="M-74 1112v248h236v-248h-236zM135 0v954h234v-954h-234zM334 1112v248h231v-248h-231z" />
<glyph unicode="&#xf0;" d="M80 477q0 121 33 211q35 94 92 158q58 65 141 98q86 35 186 35q6 0 17.5 -1t15.5 -1q23 0 33 -2q-12 20 -20 31q-4 6 -11.5 16t-11.5 14t-11 13.5t-12 13.5q-6 8 -14 12l-188 -88l-70 111l164 80l-178 143h278l80 -59l148 63l65 -108l-108 -56q92 -111 147 -209 q59 -104 84 -182q29 -88 37 -158q8 -66 8 -135q0 -127 -31 -211q-35 -94 -92 -157.5t-143 -98.5q-80 -33 -187 -33q-104 0 -184 33q-90 37 -143 96q-57 63 -92 158q-33 90 -33 213zM322 477q0 -72 16 -131q15 -55 43 -92q31 -41 65 -57q45 -20 86 -20.5t86 20.5q35 16 66 57 q28 37 43 92q16 59 16 131t-16 131.5t-43 93.5q-31 41 -66 58q-40 18 -86 18t-86 -18q-35 -16 -65 -58q-27 -35 -43 -94t-16 -131z" />
<glyph unicode="&#xf1;" d="M135 0v954h236v-55q101 80 221 80q340 0 340 -367v-612h-240v606q0 88 -28 127q-29 37 -95 37q-96 0 -198 -115v-655h-236zM170 1110q0 47 17 92q14 41 45 78q29 35 65 55q41 23 86 23q14 0 51 -10q45 -12 68 -21l62 -18q31 -10 38 -11q18 0 29 2q14 2 24.5 8.5 t20.5 18.5q8 10 10 31h189q0 -53 -14.5 -94t-45.5 -78q-27 -33 -65.5 -53.5t-85.5 -20.5q-25 0 -55 8l-66 19q-14 4 -30.5 10t-30.5 10q-25 8 -37 8q-18 0 -29 -2q-16 -4 -27 -8q-8 -4 -18 -18q-6 -10 -10 -29h-191z" />
<glyph unicode="&#xf2;" d="M80 477q0 121 33 211q35 94 92 158q58 65 141 98q86 35 186 35q102 0 189 -35q83 -34 141 -98q63 -70 92 -158q31 -92 31 -211q0 -127 -31 -211q-35 -94 -92 -157.5t-143 -98.5q-80 -33 -187 -33q-104 0 -184 33q-90 37 -143 96q-57 63 -92 158q-33 90 -33 213zM322 477 q0 -72 16 -131q15 -55 43 -92q31 -41 65 -57q45 -20 86 -20.5t86 20.5q35 16 66 57q28 37 43 92q16 59 16 131t-16 131.5t-43 93.5q-31 41 -66 58q-40 18 -86 18t-86 -18q-35 -16 -65 -58q-27 -35 -43 -94t-16 -131zM242 1366h284l137 -274h-204z" />
<glyph unicode="&#xf3;" d="M80 477q0 121 33 211q35 94 92 158q58 65 141 98q86 35 186 35q102 0 189 -35q83 -34 141 -98q63 -70 92 -158q31 -92 31 -211q0 -127 -31 -211q-35 -94 -92 -157.5t-143 -98.5q-80 -33 -187 -33q-104 0 -184 33q-90 37 -143 96q-57 63 -92 158q-33 90 -33 213zM322 477 q0 -72 16 -131q15 -55 43 -92q31 -41 65 -57q45 -20 86 -20.5t86 20.5q35 16 66 57q28 37 43 92q16 59 16 131t-16 131.5t-43 93.5q-31 41 -66 58q-40 18 -86 18t-86 -18q-35 -16 -65 -58q-27 -35 -43 -94t-16 -131zM377 1092l139 274h285l-217 -274h-207z" />
<glyph unicode="&#xf4;" d="M80 477q0 121 33 211q35 94 92 158q58 65 141 98q86 35 186 35q102 0 189 -35q83 -34 141 -98q63 -70 92 -158q31 -92 31 -211q0 -127 -31 -211q-35 -94 -92 -157.5t-143 -98.5q-80 -33 -187 -33q-104 0 -184 33q-90 37 -143 96q-57 63 -92 158q-33 90 -33 213zM322 477 q0 -72 16 -131q15 -55 43 -92q31 -41 65 -57q45 -20 86 -20.5t86 20.5q35 16 66 57q28 37 43 92q16 59 16 131t-16 131.5t-43 93.5q-31 41 -66 58q-40 18 -86 18t-86 -18q-35 -16 -65 -58q-27 -35 -43 -94t-16 -131zM196 1092l234 290h199l233 -290h-242l-92 127l-90 -127 h-242z" />
<glyph unicode="&#xf5;" d="M80 477q0 121 33 211q35 94 92 158q58 65 141 98q86 35 186 35q102 0 189 -35q83 -34 141 -98q63 -70 92 -158q31 -92 31 -211q0 -127 -31 -211q-35 -94 -92 -157.5t-143 -98.5q-80 -33 -187 -33q-104 0 -184 33q-90 37 -143 96q-57 63 -92 158q-33 90 -33 213zM322 477 q0 -72 16 -131q15 -55 43 -92q31 -41 65 -57q45 -20 86 -20.5t86 20.5q35 16 66 57q28 37 43 92q16 59 16 131t-16 131.5t-43 93.5q-31 41 -66 58q-40 18 -86 18t-86 -18q-35 -16 -65 -58q-27 -35 -43 -94t-16 -131zM170 1110q0 47 17 92q14 41 45 78q29 35 65 55 q41 23 86 23q14 0 51 -10q45 -12 68 -21l62 -18q31 -10 38 -11q18 0 29 2q14 2 24.5 8.5t20.5 18.5q8 10 10 31h189q0 -53 -14.5 -94t-45.5 -78q-27 -33 -65.5 -53.5t-85.5 -20.5q-25 0 -55 8l-66 19q-14 4 -30.5 10t-30.5 10q-25 8 -37 8q-18 0 -29 -2q-16 -4 -27 -8 q-8 -4 -18 -18q-6 -10 -10 -29h-191z" />
<glyph unicode="&#xf6;" d="M80 477q0 121 33 211q35 94 92 158q58 65 141 98q86 35 186 35q102 0 189 -35q83 -34 141 -98q63 -70 92 -158q31 -92 31 -211q0 -127 -31 -211q-35 -94 -92 -157.5t-143 -98.5q-80 -33 -187 -33q-104 0 -184 33q-90 37 -143 96q-57 63 -92 158q-33 90 -33 213zM322 477 q0 -72 16 -131q15 -55 43 -92q31 -41 65 -57q45 -20 86 -20.5t86 20.5q35 16 66 57q28 37 43 92q16 59 16 131t-16 131.5t-43 93.5q-31 41 -66 58q-40 18 -86 18t-86 -18q-35 -16 -65 -58q-27 -35 -43 -94t-16 -131zM213 1112v248h233v-248h-233zM598 1112v248h233v-248 h-233z" />
<glyph unicode="&#xf7;" horiz-adv-x="1075" d="M76 539v196h882v-196h-882zM391 207v248h250v-248h-250zM391 819v248h250v-248h-250z" />
<glyph unicode="&#xf8;" d="M72 31l96 123q-43 63 -66 143q-23 84 -22 180q0 121 33 211q35 94 92 158q58 65 141 98q86 35 186 35q68 0 123 -14q51 -14 107 -41l84 108l133 -96l-92 -119q51 -66 74 -147q25 -86 24 -193q0 -127 -31 -211q-35 -94 -92 -157.5t-143 -98.5q-80 -33 -187 -33 q-143 0 -245 64l-82 -107zM322 477q0 -59 10 -110l297 385q-47 27 -97 26q-46 0 -86 -18q-35 -16 -65 -58q-27 -35 -43 -94t-16 -131zM420 213q49 -37 112 -37q41 0 86 21q35 16 66 57q28 37 43 92q16 59 16 131q0 27 -4 72q-3 34 -12 61z" />
<glyph unicode="&#xf9;" horiz-adv-x="1067" d="M135 342v612h240v-606q0 -88 28 -127q27 -37 95 -37q109 0 200 115v655h236v-954h-236v55q-98 -78 -225 -78q-338 0 -338 365zM242 1366h284l137 -274h-204z" />
<glyph unicode="&#xfa;" horiz-adv-x="1067" d="M135 342v612h240v-606q0 -88 28 -127q27 -37 95 -37q109 0 200 115v655h236v-954h-236v55q-98 -78 -225 -78q-338 0 -338 365zM418 1092l139 274h285l-217 -274h-207z" />
<glyph unicode="&#xfb;" horiz-adv-x="1067" d="M135 342v612h240v-606q0 -88 28 -127q27 -37 95 -37q109 0 200 115v655h236v-954h-236v55q-98 -78 -225 -78q-338 0 -338 365zM190 1092l234 290h199l233 -290h-242l-92 127l-90 -127h-242z" />
<glyph unicode="&#xfc;" horiz-adv-x="1067" d="M135 342v612h240v-606q0 -88 28 -127q27 -37 95 -37q109 0 200 115v655h236v-954h-236v55q-98 -78 -225 -78q-338 0 -338 365zM224 1112v248h233v-248h-233zM609 1112v248h233v-248h-233z" />
<glyph unicode="&#xfd;" horiz-adv-x="968" d="M20 954h254l205 -600l203 600h256l-350 -929q-37 -100 -64 -158q-39 -84 -73 -133q-39 -53 -93 -88q-51 -33 -127 -33q-45 0 -67 4q-39 6 -76 18v224q49 -20 74 -23q37 -4 43 -4q20 0 43 16q22 15 43 43q23 29 41 66q23 43 35 80zM346 1092l139 274h285l-217 -274h-207z " />
<glyph unicode="&#xfe;" horiz-adv-x="1062" d="M135 -369v1690h236v-414q96 72 211 72q98 0 171.5 -37t125.5 -100q53 -66 79 -156q25 -82 25 -201q0 -114 -31 -209q-31 -94 -86 -161q-51 -61 -131 -103q-70 -35 -164 -35q-68 0 -108 11q-47 12 -92 39v-396h-236zM371 260q90 -84 192 -84q80 0 131 80q47 74 47 229 q0 147 -45 220q-45 74 -127 73q-102 0 -198 -127v-391z" />
<glyph unicode="&#xff;" horiz-adv-x="968" d="M20 954h254l205 -600l203 600h256l-350 -929q-37 -100 -64 -158q-39 -84 -73 -133q-39 -53 -93 -88q-51 -33 -127 -33q-45 0 -67 4q-39 6 -76 18v224q49 -20 74 -23q37 -4 43 -4q20 0 43 16q22 15 43 43q23 29 41 66q23 43 35 80zM172 1112v248h233v-248h-233zM557 1112 v248h233v-248h-233z" />
<glyph unicode="&#x152;" horiz-adv-x="1843" d="M68 662q0 162 38 284q41 127 113 215q76 90 176 135q102 45 232 45q72 0 104 -8q43 -10 68 -20q41 -16 57 -29l78 -61v98h749v-227h-501v-299h454v-226h-454v-342h530v-227h-778v96q-66 -55 -143 -86q-80 -31 -164 -30q-129 0 -232 45q-96 43 -176 135q-72 84 -113 213 q-38 123 -38 289zM319 662q0 -109 23 -199q23 -92 59 -146q39 -55 97 -88q55 -31 129 -30q307 0 307 463q0 459 -303 458q-76 0 -131 -28q-59 -31 -99 -88q-37 -53 -59 -146q-23 -90 -23 -196z" />
<glyph unicode="&#x153;" horiz-adv-x="1742" d="M53 477q0 121 33 211q35 94 92.5 157.5t143.5 98.5t186 35q207 0 330 -135q63 72 141 102q86 33 186 33q102 0 188.5 -35t143.5 -98q59 -66 90 -158q33 -98 33 -211v-74h-659q10 -70 26 -100q23 -45 49 -72q29 -27 68 -41q43 -14 78 -14q31 0 55 8q31 10 53 25 q20 12 41 37q16 18 27 53h241q-16 -82 -53 -139q-39 -61 -94 -101q-53 -39 -125 -61q-63 -20 -145 -21q-213 0 -342 136q-68 -78 -142 -105q-83 -31 -190 -31q-106 0 -186 33q-86 35 -142 96q-61 68 -94 158t-33 213zM297 477q0 -80 14 -131q15 -55 43 -92q31 -41 68 -57 q45 -20 86 -21q39 0 84 21q37 16 67 57q28 37 43 92q16 59 16.5 131t-16 131.5t-43.5 93.5q-31 41 -67 58q-39 18 -84 18q-46 0 -86 -18q-37 -16 -68 -58q-27 -35 -43 -94q-14 -51 -14 -131zM967 602h399q-23 86 -76 131q-55 45 -125 45q-68 0 -123 -43q-52 -41 -75 -133z " />
<glyph unicode="&#x178;" horiz-adv-x="1341" d="M25 1321h299l348 -535l348 535h297l-522 -766v-555h-246v555zM365 1495v248h233v-248h-233zM750 1495v248h233v-248h-233z" />
<glyph unicode="&#x2c6;" horiz-adv-x="698" d="M16 1092l234 290h199l233 -290h-242l-92 127l-90 -127h-242z" />
<glyph unicode="&#x2dc;" horiz-adv-x="729" d="M12 1110q0 47 17 92q14 41 45 78q29 35 65 55q41 23 86 23q14 0 51 -10q45 -12 68 -21l62 -18q31 -10 38 -11q18 0 29 2q14 2 24.5 8.5t20.5 18.5q8 10 10 31h189q0 -53 -14.5 -94t-45.5 -78q-27 -33 -65.5 -53.5t-85.5 -20.5q-25 0 -55 8l-66 19q-14 4 -30.5 10 t-30.5 10q-25 8 -37 8q-18 0 -29 -2q-16 -4 -27 -8q-8 -4 -18 -18q-6 -10 -10 -29h-191z" />
<glyph unicode="&#x2000;" horiz-adv-x="870" />
<glyph unicode="&#x2001;" horiz-adv-x="1742" />
<glyph unicode="&#x2002;" horiz-adv-x="870" />
<glyph unicode="&#x2003;" horiz-adv-x="1742" />
<glyph unicode="&#x2004;" horiz-adv-x="579" />
<glyph unicode="&#x2005;" horiz-adv-x="434" />
<glyph unicode="&#x2006;" horiz-adv-x="288" />
<glyph unicode="&#x2007;" horiz-adv-x="288" />
<glyph unicode="&#x2008;" horiz-adv-x="217" />
<glyph unicode="&#x2009;" horiz-adv-x="346" />
<glyph unicode="&#x200a;" horiz-adv-x="94" />
<glyph unicode="&#x2010;" horiz-adv-x="612" d="M39 365v227h536v-227h-536z" />
<glyph unicode="&#x2011;" horiz-adv-x="612" d="M39 365v227h536v-227h-536z" />
<glyph unicode="&#x2012;" horiz-adv-x="612" d="M39 365v227h536v-227h-536z" />
<glyph unicode="&#x2013;" horiz-adv-x="538" d="M-29 379v199h598v-199h-598z" />
<glyph unicode="&#x2014;" horiz-adv-x="1079" d="M-29 379v199h1139v-199h-1139z" />
<glyph unicode="&#x2018;" horiz-adv-x="409" d="M72 827v207q0 68 14 119q14 49 49 98q29 39 78 66q45 25 109 24v-135q-58 0 -80 -30q-23 -33 -23 -103h103v-246h-250z" />
<glyph unicode="&#x2019;" horiz-adv-x="409" d="M72 805v135q58 0 80 31q23 33 22 102h-102v248h250v-209q0 -59 -17 -119q-14 -49 -47 -96q-31 -43 -78 -68q-45 -24 -108 -24z" />
<glyph unicode="&#x201a;" horiz-adv-x="552" d="M131 0v260h264v-223q0 -68 -16 -129q-15 -58 -49 -105q-33 -43 -84 -69q-53 -27 -115 -27v141q111 0 111 152h-111z" />
<glyph unicode="&#x201c;" horiz-adv-x="704" d="M72 827v207q0 68 14 119q14 49 49 98q29 39 78 66q45 25 109 24v-135q-58 0 -80 -30q-23 -33 -23 -103h103v-246h-250zM385 827v207q0 68 14 119q14 49 50 98q29 39 77 66q47 25 109 24v-135q-58 0 -80 -30q-23 -33 -23 -103h103v-246h-250z" />
<glyph unicode="&#x201d;" horiz-adv-x="704" d="M72 805v135q58 0 80 31q23 33 22 102h-102v248h250v-209q0 -59 -17 -119q-14 -49 -47 -96q-31 -43 -78 -68q-45 -24 -108 -24zM385 805v135q58 0 80 31q23 33 22 102h-102v248h250v-209q0 -59 -17 -119q-14 -49 -47 -96q-31 -43 -78 -67.5t-108 -24.5z" />
<glyph unicode="&#x201e;" horiz-adv-x="780" d="M100 0v260h265v-223q0 -68 -17 -129q-15 -58 -49 -105q-33 -45 -82 -69q-53 -27 -117 -27v141q61 0 86 43t25 109h-111zM440 0v260h265v-223q0 -68 -17 -129q-15 -58 -49 -105q-33 -45 -82 -69q-53 -27 -117 -27v141q111 0 111 152h-111z" />
<glyph unicode="&#x2022;" horiz-adv-x="798" d="M113 758q0 53 22 108q22 52 62 92q43 43 92 64q55 23 112 22q55 0 111 -22q49 -20 92 -64q37 -37 59.5 -92t22.5 -108q0 -66 -22 -113q-25 -53 -64 -92q-40 -40 -92 -61q-55 -23 -107 -23q-57 0 -112 23q-52 22 -92 61.5t-62 91.5q-22 56 -22 113z" />
<glyph unicode="&#x2026;" horiz-adv-x="1042" d="M78 0v246h248v-246h-248zM395 0v246h250v-246h-250zM715 0v246h250v-246h-250z" />
<glyph unicode="&#x202f;" horiz-adv-x="346" />
<glyph unicode="&#x2039;" horiz-adv-x="665" d="M43 512l313 449h224l-256 -449l256 -449h-224z" />
<glyph unicode="&#x203a;" horiz-adv-x="665" d="M59 63l256 449l-256 449h220l313 -449l-313 -449h-220z" />
<glyph unicode="&#x205f;" horiz-adv-x="434" />
<glyph unicode="&#x20ac;" horiz-adv-x="1024" d="M31 434v164h75v45v41h-75v168h88q14 113 49 205q33 90 86 155q49 59 125 97q68 33 162 32q169 0 276.5 -104t140.5 -301h-239q-18 94 -66 151q-47 55 -112 56q-37 0 -64 -21q-31 -25 -51 -61q-27 -49 -39 -92q-18 -66 -27 -117h258l-45 -168h-225v-86h197l-47 -164h-138 q41 -258 181 -258q147 0 180 252h242q-51 -451 -422 -451q-358 0 -420 457h-90z" />
<glyph unicode="&#x2122;" horiz-adv-x="1259" d="M45 1210v109h471v-109h-174v-534h-123v534h-174zM590 676v643h178l111 -496l110 496h176v-643h-110v524l-121 -524h-111l-121 524v-524h-112z" />
<glyph unicode="&#xe000;" horiz-adv-x="955" d="M0 955h955v-955h-955v955z" />
<glyph unicode="&#xfb01;" horiz-adv-x="1083" d="M717 0v954h234v-954h-234zM717 1073v248h234v-248h-234zM31 758v196h129v72q0 319 284 320q43 0 82 -7q31 -4 74 -16v-211q-51 10 -78 12q-41 4 -53 4q-37 0 -55.5 -24.5t-18.5 -79.5v-70h166v-196h-166v-758h-235v758h-129z" />
<glyph unicode="&#xfb02;" horiz-adv-x="1083" d="M717 0v1321h234v-1321h-234zM31 758v196h129v72q0 319 284 320q43 0 82 -7q31 -4 74 -16v-211q-51 10 -78 12q-41 4 -53 4q-37 0 -55.5 -24.5t-18.5 -79.5v-70h166v-196h-166v-758h-235v758h-129z" />
<glyph unicode="&#xfb03;" horiz-adv-x="1665" d="M1296 0v954h234v-954h-234zM1296 1073v248h234v-248h-234zM613 758v196h129v72q0 319 284 320q43 0 82 -7q31 -4 74 -16v-211q-51 10 -78 12q-41 4 -53 4q-37 0 -55.5 -24.5t-18.5 -79.5v-70h166v-196h-166v-758h-235v758h-129zM31 758v196h129v72q0 319 284 320 q43 0 82 -7q31 -4 74 -16v-211q-51 10 -78 12q-41 4 -53 4q-37 0 -55.5 -24.5t-18.5 -79.5v-70h166v-196h-166v-758h-235v758h-129z" />
<glyph unicode="&#xfb04;" horiz-adv-x="1665" d="M1296 0v1321h234v-1321h-234zM613 758v196h129v72q0 319 284 320q43 0 82 -7q31 -4 74 -16v-211q-51 10 -78 12q-41 4 -53 4q-37 0 -55.5 -24.5t-18.5 -79.5v-70h166v-196h-166v-758h-235v758h-129zM31 758v196h129v72q0 319 284 320q43 0 82 -7q31 -4 74 -16v-211 q-51 10 -78 12q-41 4 -53 4q-37 0 -55.5 -24.5t-18.5 -79.5v-70h166v-196h-166v-758h-235v758h-129z" />
</font>
</defs>
</svg>
