<?xml version="1.0" standalone="no"?>
<!DOCTYPE svg PUBLIC "-//W3C//DTD SVG 1.1//EN" "http://www.w3.org/Graphics/SVG/1.1/DTD/svg11.dtd" >
<svg xmlns="http://www.w3.org/2000/svg">
<metadata>
This is a custom SVG webfont generated by Font Squirrel.
Copyright   : Copyright 19901993 Bitstream Inc  All rights reserved
</metadata>
<defs>
<font id="webfontXE2FRCek" horiz-adv-x="1140" >
<font-face units-per-em="2048" ascent="1638" descent="-410" />
<missing-glyph horiz-adv-x="567" />
<glyph unicode=" "  horiz-adv-x="567" />
<glyph unicode="&#x09;" horiz-adv-x="567" />
<glyph unicode="&#xa0;" horiz-adv-x="567" />
<glyph unicode="!" horiz-adv-x="665" d="M209 1030v443h244v-443l-58 -651h-125zM211 0v252h242v-252h-242z" />
<glyph unicode="&#x22;" horiz-adv-x="641" d="M86 879v557h164v-557h-164zM395 879v557h164v-557h-164z" />
<glyph unicode="#" horiz-adv-x="1574" d="M70 428l61 172h297l90 252h-315l61 172h316l155 436h191l-154 -436h250l156 436h190l-154 -436h291l-59 -172h-293l-90 -252h309l-61 -172h-307l-156 -434h-191l156 434h-252l-158 -434h-190l156 434h-299zM618 598h256l91 254h-256z" />
<glyph unicode="$" d="M68 418v16h217v-6q0 -123 61 -197q59 -72 168 -84v478q-217 43 -319.5 139t-102.5 256q0 176 115 287q113 109 307 118v136h111v-136q199 -16 305 -118q111 -106 112 -279h-219q-12 100 -61 152q-49 53 -137 61v-422q254 -68 350 -162q98 -96 98 -268q0 -180 -119 -293 q-115 -109 -329 -131v-188h-111v186q-223 16 -334 129q-112 117 -112 326zM311 1044q0 -84 47 -131q51 -51 156 -71v401q-94 -4 -147 -57q-56 -56 -56 -142zM625 143q104 12 163 72q57 57 58 154q0 88 -51.5 139t-169.5 86v-451z" />
<glyph unicode="%" horiz-adv-x="1742" d="M70 1046.5q0 153.5 104.5 258t257.5 104.5q147 0 254 -106.5t107 -256t-106.5 -256t-254.5 -106.5q-154 0 -258 104.5t-104 258zM248 1046.5q0 -77.5 53 -131t131 -53.5t129 53q53 57 53 131t-53 132q-51 53 -129 53t-131 -53.5t-53 -131zM369 -41l866 1473h139 l-866 -1473h-139zM950 346q0 154 104.5 258.5t258.5 104.5q150 0 256 -106.5t106 -256.5q0 -152 -106.5 -258t-255.5 -106q-154 0 -258 106q-105 107 -105 258zM1128 346q0 -78 54 -131q55 -55 131 -55q74 0 129 55t55 131q0 78 -53 129q-57 53 -131 53q-78 0 -131.5 -53 t-53.5 -129z" />
<glyph unicode="&#x26;" horiz-adv-x="1413" d="M104 397q0 137 76 238q78 102 254 203q-82 96 -119 174q-35 74 -34 147q0 150 100 244t264 94q166 0 260 -86q96 -86 96 -235q0 -115 -63 -205q-66 -94 -195 -172l248 -303q33 61 45 112q14 55 21 133h211q-6 -115 -41 -219t-99 -192l273 -330h-287l-125 154 q-94 -100 -201 -144q-117 -47 -251 -47q-186 0 -309.5 123t-123.5 311zM336 410q0 -106 67.5 -174t176.5 -68q76 0 149.5 37t134.5 104l-311 381q-113 -63 -166 -133q-51 -65 -51 -147zM492 1176q0 -51 30.5 -106.5t104.5 -135.5q92 57 131 110q41 55 41 125q0 72 -39 111 q-41 41 -109 41q-76 0 -116 -39q-43 -40 -43 -106z" />
<glyph unicode="'" horiz-adv-x="333" d="M86 879v557h164v-557h-164z" />
<glyph unicode="(" horiz-adv-x="718" d="M188 526.5q0 243.5 86 481t258 471.5h164q-141 -233 -208.5 -467t-67.5 -484q0 -242 69 -485q66 -231 207 -469h-164q-174 238 -258 471q-86 238 -86 481.5z" />
<glyph unicode=")" horiz-adv-x="718" d="M25 -426q145 244 208 469q68 237 68 485q0 246 -68 482q-63 225 -208 469h163q168 -227 256 -471q86 -238 86 -481.5t-86 -481.5q-88 -244 -256 -471h-163z" />
<glyph unicode="*" horiz-adv-x="1024" d="M96 1100l58 176l270 -94v291h174v-291l270 92l62 -176l-287 -76l195 -242l-152 -110l-176 254l-174 -252l-152 106l195 244z" />
<glyph unicode="+" horiz-adv-x="1705" d="M254 528v166h514v527h170v-527h514v-166h-514v-528h-170v528h-514z" />
<glyph unicode="," horiz-adv-x="567" d="M162 0v256h248v-262q0 -129 -64 -207q-66 -82 -184 -106v106q57 12 94 61q35 47 35 119v13q0 4 -1 11t-1 9h-127z" />
<glyph unicode="-" horiz-adv-x="657" d="M68 438v211h524v-211h-524z" />
<glyph unicode="." horiz-adv-x="567" d="M162 0v258h248v-258h-248z" />
<glyph unicode="/" horiz-adv-x="630" d="M0 -190l498 1701h131l-500 -1701h-129z" />
<glyph unicode="0" d="M68 696q0 365 127 551q126 184 374 185q252 0 377 -187q127 -188 127 -550.5t-127 -549t-377 -186.5q-248 0 -374.5 186t-126.5 551zM309 694q0 -279 64 -405q66 -129 196 -129q135 0 199 129q63 127 63 405q0 283 -63 410q-63 129 -199 129q-131 0 -196 -129 q-64 -127 -64 -410z" />
<glyph unicode="1" d="M180 999v166q188 0 278.5 61.5t108.5 205.5h178v-1432h-229v999h-336z" />
<glyph unicode="2" d="M57 0v6q0 197 86 332t295 264l82 49q291 168 291 344q0 104 -69.5 170t-178.5 66q-121 0 -188 -78q-70 -80 -70 -213v-22h-221v10q0 240 129 370q129 133 362 134q215 0 343 -119q131 -121 131 -316q0 -145 -78 -254q-82 -113 -254 -213l-39 -22q-313 -182 -352 -301h718 v-207h-987z" />
<glyph unicode="3" d="M51 432v10h225q0 -137 70 -209q72 -74 195 -73q127 0 202 65q72 63 72 180t-72 179q-74 63 -202 63h-58q-6 0 -17 -1t-15 -1v178h20h35q141 0 201 51q61 51 61 162q0 94 -59 148q-61 55 -164 55q-115 0 -178 -68q-63 -66 -64 -192v-12h-221v10q0 209 125 332 q126 123 338 123q219 0 340 -103q123 -104 123 -278q0 -98 -45 -177q-43 -74 -132 -112q109 -41 168.5 -131t59.5 -213q0 -211 -141 -334q-143 -125 -383 -125q-225 0 -353 127q-131 131 -131 346z" />
<glyph unicode="4" d="M49 334v211l582 846h258v-867h186v-190h-186v-334h-225v334h-615zM244 522h424v627z" />
<glyph unicode="5" d="M53 377h230q8 -98 79 -160q70 -59 175 -59q131 0 206.5 77.5t75.5 215t-76 213.5q-78 78 -206 77q-70 0 -131 -28q-57 -27 -103 -88l-205 6l105 760h784v-201h-620l-48 -340q51 41 119 63q63 20 148 21q211 0 344 -133q131 -131 131 -350q0 -215 -146 -355 q-143 -137 -376 -137q-209 0 -340 113q-130 112 -146 305z" />
<glyph unicode="6" d="M66 645q0 383 143 584q143 203 414 203q188 0 307 -103q115 -100 127 -278h-232q-8 92 -65 141q-53 47 -152 47q-135 0 -211 -113q-72 -106 -84 -342q70 72 140 101q76 31 182 30q194 0 319 -129q125 -127 125 -331q0 -225 -135 -360.5t-354 -135.5q-254 0 -389 176 t-135 510zM324 438q0 -131 71.5 -208.5t188 -77.5t188.5 79q70 78 70 218q0 127 -70 198q-72 74 -188 74q-121 0 -190.5 -76t-69.5 -207z" />
<glyph unicode="7" d="M76 1180v211h993v-191q-242 -266 -377 -561q-137 -297 -170 -639h-248q31 315 168 612q133 287 379 568h-745z" />
<glyph unicode="8" d="M70 410q0 127 57 215q61 92 168 137q-94 47 -135 115q-45 74 -45 172q0 176 123 280q121 102 337 103q205 0 328 -104.5t123 -276.5q0 -98 -45 -172q-43 -71 -135 -117q108 -43 166 -135q59 -94 59 -217q0 -207 -135 -330q-133 -121 -373 -121q-231 0 -360 121 q-133 123 -133 330zM307 408q0 -113 70 -181q71 -68 190 -67q126 0 197 67q70 68 70 187q0 113 -72 178t-193 65q-123 0 -192.5 -67t-69.5 -182zM342 1042q0 -94 61.5 -149t165.5 -55q106 0 168 55t62 147q0 94 -62 146q-63 53 -168 53q-102 0 -166 -53q-61 -52 -61 -144z " />
<glyph unicode="9" d="M57 938q0 223 135.5 358.5t358.5 135.5q254 0 387 -176.5t133 -510.5q0 -383 -143 -583q-145 -203 -412 -203q-194 0 -313 104q-117 102 -121 277h231q6 -88 64 -137q61 -51 153 -51q135 0 211 112.5t84 341.5q-57 -63 -137 -98q-74 -33 -174 -33q-201 0 -330 129 q-127 127 -127 334zM297 948q0 -133 70 -205q71 -74 190 -73q115 0 186 73q70 72 70 197q0 141 -70 219q-71 80 -190 80q-121 0 -186 -78q-70 -82 -70 -213z" />
<glyph unicode=":" horiz-adv-x="616" d="M184 0v258h248v-258h-248zM184 813v258h248v-258h-248z" />
<glyph unicode=";" horiz-adv-x="616" d="M184 0v256h248v-262q0 -129 -63 -207q-66 -82 -185 -106v106q55 12 92 61.5t37 118.5v33h-129zM184 813v258h248v-258h-248z" />
<glyph unicode="&#x3c;" horiz-adv-x="1705" d="M264 530v160l1178 486v-185l-934 -381l934 -381v-182z" />
<glyph unicode="=" horiz-adv-x="1705" d="M254 322v165h1198v-165h-1198zM254 733v168h1198v-168h-1198z" />
<glyph unicode="&#x3e;" horiz-adv-x="1705" d="M264 47v182l934 381l-934 381v185l1178 -486v-160z" />
<glyph unicode="?" horiz-adv-x="1105" d="M74 1024v25q0 217 125 339.5t348 122.5q203 0 332 -112q125 -111 125 -299q0 -190 -222 -387l-16 -15.5l-12 -11.5q-66 -59 -90 -108q-23 -45 -23 -125v-23q0 -6 1 -12t1 -8h-219v22q0 6 -1 13.5t-1 9.5q0 102 28.5 178t96.5 143q10 10 16 16.5t18.5 17.5l30.5 28 q150 137 150 258q0 92 -60 155q-57 59 -153 60q-123 0 -184 -72q-61 -71 -68 -215h-223zM416 0v252h241v-252h-241z" />
<glyph unicode="@" horiz-adv-x="2048" d="M98 522q0 168 52 314q53 152 153 272q150 180 354 272q207 92 459 93q168 0 315.5 -45.5t254.5 -127.5q133 -102 198 -235q66 -135 66 -301q0 -158 -66 -301q-63 -137 -184 -238q-68 -55 -150 -83.5t-168 -28.5q-104 0 -157 41q-51 39 -51 125v4q-57 -90 -127 -127 q-76 -41 -177 -41q-154 0 -233.5 86t-79.5 250q0 233 137 395t334 162q86 0 150 -35q57 -33 98 -107l55 107h154l-148 -586q0 -2 -1 -6t-1 -6q-6 -28 -6 -37q0 -41 27 -62q29 -23 69 -22q51 0 107 31q63 35 106 84q76 82 111 178q37 101 37 215q0 256 -187 412 q-188 158 -489 157q-139 0 -256 -31q-119 -31 -215 -94q-180 -113 -278.5 -291t-98.5 -395q0 -311 209 -500q207 -186 559 -186q166 0 324 49q156 49 291 142l67 -99q-145 -111 -319 -170q-166 -57 -355 -57q-199 0 -352 47q-158 49 -280 143q-154 117 -232 275 q-76 153 -76 358zM741 444q0 -100 45 -151q47 -53 129 -53q90 0 164 67.5t99 171.5l55 228q-16 86 -61.5 131t-122.5 45q-127 0 -218 -129q-90 -132 -90 -310z" />
<glyph unicode="A" horiz-adv-x="1347" d="M0 0l535 1473h276l541 -1473h-262l-132 381h-573l-129 -381h-256zM453 586h438l-219 639z" />
<glyph unicode="B" horiz-adv-x="1392" d="M156 0v1473h637q231 0 345.5 -92.5t114.5 -280.5q0 -109 -51 -187q-53 -82 -145 -118q131 -39 192 -127q66 -94 66 -232q0 -203 -137.5 -319.5t-376.5 -116.5h-645zM395 217h385q143 0 213 57.5t70 174.5q0 115 -72 169q-70 55 -225 56h-371v-457zM395 874h348 q137 0 201 49.5t64 157.5q0 94 -64 140q-66 47 -192 47h-357v-394z" />
<glyph unicode="C" horiz-adv-x="1486" d="M92 735q0 366 184 572q184 205 512 204q264 0 429 -133q160 -131 182 -366h-242q-23 135 -117 207q-98 74 -256 73q-211 0 -327 -143q-115 -141 -115 -403.5t116.5 -414t321.5 -151.5q160 0 266.5 96.5t118.5 251.5h240q-10 -250 -186 -409q-178 -160 -449 -160 q-313 0 -495.5 207t-182.5 569z" />
<glyph unicode="D" horiz-adv-x="1464" d="M156 0v1473h569q326 0 487.5 -182.5t161.5 -549.5q0 -358 -178 -548q-180 -193 -512 -193h-528zM397 217h301q217 0 321.5 131t104.5 406q0 252 -104.5 381t-304.5 129h-318v-1047z" />
<glyph unicode="E" horiz-adv-x="1320" d="M156 0v1473h1056v-216h-815v-385h752v-206h-752v-445h842v-221h-1083z" />
<glyph unicode="F" horiz-adv-x="1206" d="M156 0v1473h1005v-216h-764v-395h670v-213h-670v-649h-241z" />
<glyph unicode="G" horiz-adv-x="1576" d="M92 735q0 353 191 565q190 211 510 211q268 0 434 -129q168 -131 198 -360h-243q-27 129 -127 205q-98 74 -246 73q-219 0 -342 -147t-123 -412q0 -261 123 -411t336 -150q176 0 293 113q115 111 121 299h-404v203h629v-795h-162l-41 186q-82 -111 -199 -168 q-115 -57 -264 -57q-305 0 -495 213q-189 209 -189 561z" />
<glyph unicode="H" horiz-adv-x="1497" d="M156 0v1473h245v-580h697v580h245v-1473h-245v674h-697v-674h-245z" />
<glyph unicode="I" horiz-adv-x="569" d="M162 0v1473h246v-1473h-246z" />
<glyph unicode="J" horiz-adv-x="1075" d="M45 436v72h236v-94q0 -119 51 -183q47 -59 151 -59q113 0 160 59.5t47 239.5v1002h246v-1055q0 -238 -107 -346q-109 -111 -335 -111q-233 0 -340 113q-109 114 -109 362z" />
<glyph unicode="K" horiz-adv-x="1363" d="M156 0v1473h243v-666l652 666h313l-594 -592l627 -881h-299l-502 711l-197 -195v-516h-243z" />
<glyph unicode="L" horiz-adv-x="1134" d="M156 0v1473h245v-1250h727v-223h-972z" />
<glyph unicode="M" horiz-adv-x="1736" d="M156 0v1473h356l354 -1178l359 1178h356v-1473h-233v1217l-365 -1217h-240l-360 1217v-1217h-227z" />
<glyph unicode="N" horiz-adv-x="1492" d="M156 0v1473h260l686 -1102v1102h237v-1473h-258l-690 1102v-1102h-235z" />
<glyph unicode="O" horiz-adv-x="1595" d="M92 735q0 367 189 570q190 207 517.5 206.5t518.5 -208.5q188 -207 188 -568q0 -362 -188.5 -569t-517.5 -207q-328 0 -518 207q-189 202 -189 569zM342 735q0 -262 121 -413q119 -150 336 -150t336 150q121 152 120 413q0 264 -120.5 413.5t-335.5 149.5t-336 -149.5 t-121 -413.5z" />
<glyph unicode="P" horiz-adv-x="1320" d="M156 0v1473h561q135 0 200.5 -12.5t118.5 -41.5q102 -55 153.5 -155.5t51.5 -243.5q0 -117 -43 -209q-43 -94 -125 -154q-57 -41 -131 -59t-207 -18h-334v-580h-245zM401 795h318q150 0 213 55t63 176q0 123 -63.5 178.5t-198.5 55.5h-332v-465z" />
<glyph unicode="Q" horiz-adv-x="1595" d="M92 735q0 358 190.5 567t520.5 209q322 0 512 -208.5t190 -569.5q0 -160 -45 -305q-41 -133 -131 -242l170 -151l-127 -146l-190 168q-86 -51 -174 -73q-98 -25 -203 -25q-332 0 -522.5 207t-190.5 569zM342 735q0 -270 121 -416q123 -147 342 -147q63 0 104 10.5 t90 34.5l-159 141l127 146l180 -158q53 66 80 168q29 109 28 227q0 258 -122.5 407.5t-331.5 149.5q-213 0 -338 -149q-121 -146 -121 -414z" />
<glyph unicode="R" horiz-adv-x="1404" d="M156 0v1473h635q41 0 63 -3h14q193 0 306 -108q111 -109 110 -301q0 -123 -55 -213t-156 -129q86 -27 129 -92q41 -63 47 -203l13 -211v-2q6 -137 61 -168v-43h-274q-15 28 -25 68q-8 39 -12 127l-8 176q-10 143 -60 188q-53 47 -174 47h-47h-324v-606h-243zM397 813h351 q156 0 221 53q68 55 67 176q0 117 -65.5 170.5t-216.5 53.5h-357v-453z" />
<glyph unicode="S" horiz-adv-x="1339" d="M88 473h238q8 -139 108 -221q98 -80 264 -80q127 0 207 61.5t80 149.5q0 35 -22 80q-23 43 -58 76q-59 53 -258 102l-37.5 9t-27.5 7q-248 66 -349 166q-102 102 -102 273q0 182 149.5 298.5t397.5 116.5q240 0 385 -127q141 -125 145 -342h-233q-8 125 -94 195 q-88 72 -232 72q-120 0 -196 -56q-76 -55 -76 -139q0 -86 67 -137q70 -55 281 -109q326 -83 424 -178q100 -96 100 -268q0 -209 -155 -334q-158 -127 -416 -127q-274 0 -426 131t-164 381z" />
<glyph unicode="T" horiz-adv-x="1189" d="M18 1257v216h1151v-216h-452v-1257h-244v1257h-455z" />
<glyph unicode="U" horiz-adv-x="1458" d="M147 543v930h246v-916q0 -193 82 -283t254 -90t256 92q82 90 82 281v916h246v-930q0 -281 -151.5 -432.5t-432.5 -151.5q-287 0 -434.5 147.5t-147.5 436.5z" />
<glyph unicode="V" horiz-adv-x="1263" d="M0 1473h264l371 -1176l371 1176h262l-510 -1473h-246z" />
<glyph unicode="W" horiz-adv-x="1875" d="M12 1473h248l279 -1117l268 1117h260l274 -1113l281 1113h244l-404 -1473h-237l-289 1178l-283 -1178h-239z" />
<glyph unicode="X" horiz-adv-x="1255" d="M0 0l481 754l-469 719h289l330 -533l332 533h284l-473 -717l488 -756h-291l-344 559l-336 -559h-291z" />
<glyph unicode="Y" horiz-adv-x="1249" d="M-23 1473h304l360 -670l348 670h283l-506 -891v-582h-246v571z" />
<glyph unicode="Z" horiz-adv-x="1226" d="M49 0v205l858 1055h-817v213h1106v-216l-848 -1040h842v-217h-1141z" />
<glyph unicode="[" horiz-adv-x="749" d="M244 -420v1893h444v-173h-225v-1550h225v-170h-444z" />
<glyph unicode="\" horiz-adv-x="630" d="M0 1511h131l496 -1701h-127z" />
<glyph unicode="]" horiz-adv-x="749" d="M68 -250h225v1550h-225v173h444v-1893h-444v170z" />
<glyph unicode="^" horiz-adv-x="2048" d="M418 899l497 561h218l495 -561h-207l-397 397l-399 -397h-207z" />
<glyph unicode="_" horiz-adv-x="1024" d="M0 -311h1024v-172h-1024v172z" />
<glyph unicode="`" horiz-adv-x="1024" d="M238 1575h225l201 -358h-129z" />
<glyph unicode="a" horiz-adv-x="1126" d="M72 285q0 166 98 247q96 80 360 115q8 0 23 2q217 27 217 125q0 80 -53 115q-55 37 -168 37q-106 0 -161.5 -43t-55.5 -127v-8h-217v18q0 162 118 254q123 94 324 94q213 0 323.5 -80t110.5 -239v-535q0 -66 15 -82q14 -18 51 -18h16l29 4v-168q-33 -10 -60 -12 q-41 -4 -57 -4q-102 0 -153.5 40.5t-53.5 122.5q-61 -82 -160 -131q-94 -47 -198 -47q-166 0 -256 84q-92 86 -92 236zM297 305q0 -76 45 -115q47 -41 131 -40q127 0 211 71.5t84 184.5v135q-72 -37 -229 -60q-68 -10 -84 -14q-78 -14 -119 -55q-39 -39 -39 -107z" />
<glyph unicode="b" horiz-adv-x="1232" d="M139 0v1473h221v-537q57 86 144 133q84 45 192 45q205 0 334 -160q127 -158 127 -419q0 -260 -127 -414q-129 -156 -336 -156q-111 0 -186 41q-84 45 -150 135v-141h-219zM356 539q0 -181 74 -277t213 -96q137 0 209 96q74 98 74 270q0 180 -74 280.5t-209 100.5 q-141 0 -215 -94q-72 -92 -72 -280z" />
<glyph unicode="c" horiz-adv-x="1099" d="M78 537q0 268 133 424q133 154 369 153q203 0 329 -108t135 -295h-225q-10 96 -71.5 151.5t-161.5 55.5q-135 0 -203 -95t-68 -282q0 -181 68 -277t197 -96q102 0 168 59q61 57 77 168h222q-16 -201 -146 -315q-131 -115 -344 -115q-221 0 -350 154t-129 418z" />
<glyph unicode="d" horiz-adv-x="1234" d="M78 535q0 260 129 419.5t332 159.5q113 0 192 -41q88 -45 143 -127v527h222v-1473h-219v141q-68 -88 -152 -133q-80 -43 -184 -43q-205 0 -334 156q-129 158 -129 414zM309 532q0 -170 76 -270q72 -96 207 -96q139 0 213 98t74 283q0 182 -72 272q-76 94 -215 94 q-135 0 -209 -100.5t-74 -280.5z" />
<glyph unicode="e" d="M80 543q0 272 133 420q135 152 371 151q227 0 360 -149q131 -145 131 -408q0 -8 -4 -74v-6h-754q4 -152 74 -231q72 -82 201 -82q90 0 156 47q61 45 83 129h228q-31 -166 -164 -272q-129 -102 -317 -103q-233 0 -365 154q-133 156 -133 424zM317 643h519q0 131 -68 205 q-66 72 -190 72q-115 0 -183 -70q-66 -68 -78 -207z" />
<glyph unicode="f" horiz-adv-x="593" d="M10 909v170h166v133q0 141 68 209q70 70 209 70q53 0 133 -10l2 -1q2 -1 4 -1v-193l-49 4q-12 2 -31 2q-59 0 -86 -26q-23 -23 -23 -105v-82h189v-170h-189v-909h-227v909h-166z" />
<glyph unicode="g" horiz-adv-x="1230" d="M80 543q0 262 129 415q131 156 346 156q109 0 184.5 -41t139.5 -129v135h219v-1034q0 -264 -119 -377q-121 -115 -393 -114q-217 0 -342 88q-121 86 -125 241h235q6 -68 63.5 -104.5t168.5 -36.5q158 0 223 63q68 63 68 211v125q-55 -80 -136 -118q-86 -41 -188 -41 q-215 0 -344 153.5t-129 407.5zM313 555q0 -182 74 -281q72 -96 211 -96q143 0 213 92q70 90 70 275q0 181 -74 276q-74 94 -217 94q-129 0 -203 -96q-74 -95 -74 -264z" />
<glyph unicode="h" horiz-adv-x="1193" d="M135 0v1473h230v-533q53 80 137 123q86 43 192 43q176 0 275 -88q94 -86 94 -252l1 -5q1 -5 1 -13.5v-18.5v-59v-670h-229v666q0 129 -49.5 186t-157.5 57q-117 0 -190.5 -73.5t-73.5 -196.5v-639h-230z" />
<glyph unicode="i" horiz-adv-x="499" d="M135 0v1079h230v-1079h-230zM135 1241v232h230v-232h-230z" />
<glyph unicode="j" horiz-adv-x="507" d="M-12 -244l39 -2h24q49 0 72 23q20 20 20 92v1210h228v-1245q0 -150 -72 -215t-231 -65h-35l-45 2v200zM143 1241v232h228v-232h-228z" />
<glyph unicode="k" horiz-adv-x="1093" d="M135 0v1473h225v-834l424 440h279l-389 -397l397 -682h-266l-291 516l-154 -156v-360h-225z" />
<glyph unicode="l" horiz-adv-x="505" d="M139 0v1473h230v-1473h-230z" />
<glyph unicode="m" horiz-adv-x="1773" d="M133 0v1079h217v-139q59 80 137 123q80 43 177 43q109 0 180 -39q74 -39 125 -125q61 80 141 123q76 41 178 41q184 0 270.5 -98.5t86.5 -313.5v-694h-226v678q0 119 -43 174t-137 55q-109 0 -174 -69q-63 -66 -64 -193v-645h-227v721q0 84 -47 135t-131 51 q-109 0 -172.5 -69.5t-63.5 -194.5v-643h-227z" />
<glyph unicode="n" horiz-adv-x="1189" d="M133 0v1079h221v-145q61 86 142 127q90 45 188 45q203 0 291 -94t88 -326v-686h-229v709q0 98 -52 149q-53 53 -145 53q-127 0 -203 -75q-72 -72 -72 -209v-627h-229z" />
<glyph unicode="o" horiz-adv-x="1212" d="M78 539q0 270 139 422q141 154 389 153.5t389.5 -154t141.5 -421.5q0 -270 -139.5 -422t-389.5 -152q-248 0 -389 152q-141 150 -141 422zM311 539q0 -184 76 -280.5t221 -96.5q143 0 219 96t76 280.5t-76 280.5q-78 98 -219 99q-144 0 -221 -99q-76 -96 -76 -280z" />
<glyph unicode="p" horiz-adv-x="1232" d="M139 -430v1509h219v-151q68 98 148 141q84 45 188 45q207 0 336 -156q127 -154 127 -413q0 -262 -127 -420q-129 -160 -334 -160q-109 0 -194 43q-82 41 -142 125v-563h-221zM356 532q0 -182 72 -272q76 -94 215 -94q133 0 209 100q74 98 74 279q0 174 -76 270 q-76 98 -207 98q-139 0 -213 -98.5t-74 -282.5z" />
<glyph unicode="q" horiz-adv-x="1232" d="M78 539q0 260 127 417.5t332 157.5q111 0 192 -43q84 -43 145 -135v143h222v-1509h-222v571q-57 -88 -139 -131q-86 -45 -196 -45q-207 0 -334 158t-127 416zM309 551q0 -186 74 -286.5t211 -100.5t211 96q72 92 72 279q0 182 -74 278t-215 96q-126 0 -203 -98 q-76 -96 -76 -264z" />
<glyph unicode="r" horiz-adv-x="724" d="M133 0v1079h215v-190q47 109 121 162q76 53 178 53h6q16 -2 45 -2v-236h-61q-137 0 -207 -69.5t-70 -208.5v-588h-227z" />
<glyph unicode="s" horiz-adv-x="1060" d="M63 350h224q10 -100 71 -147q65 -49 185 -49q102 0 159.5 38.5t57.5 104.5q0 49 -35 77.5t-133 53.5l-162 41q-182 45 -260 117q-76 70 -76 192q0 158 113 246q115 90 309 90q203 0 322 -94q121 -96 120 -254h-223q-6 80 -63 123q-55 41 -164 41q-82 0 -135 -33 q-49 -31 -49 -84q0 -51 41 -82q45 -35 141 -55l137 -31q199 -45 272 -117q74 -71 74 -202q0 -170 -123 -267q-121 -94 -344 -94q-221 0 -340 100.5t-119 284.5z" />
<glyph unicode="t" horiz-adv-x="606" d="M8 909v170h154v297h227v-297h180v-170h-180v-635q0 -61 18.5 -79.5t71.5 -18.5h23q6 0 13 1t9 1l45 2v-182q-2 0 -9 -1t-13 -1q-109 -10 -139 -10q-135 0 -191 57q-55 59 -55 203v663h-154z" />
<glyph unicode="u" horiz-adv-x="1189" d="M129 393v686h229v-659q0 -141 45 -195q47 -55 152 -55q131 0 202.5 78t71.5 225v606h228v-1079h-219v147q-55 -83 -142 -129q-84 -45 -192 -45q-115 0 -193 33q-74 31 -127 100q-31 43 -43 101q-12 59 -12 186z" />
<glyph unicode="v" horiz-adv-x="1028" d="M0 1079h250l268 -825l264 825h242l-389 -1079h-238z" />
<glyph unicode="w" horiz-adv-x="1523" d="M14 1079h236l205 -790l184 790h248l186 -790l209 790h227l-317 -1079h-227l-205 805l-201 -805h-229z" />
<glyph unicode="x" horiz-adv-x="1013" d="M0 0l369 553l-355 526h265l231 -360l227 360h258l-352 -522l375 -557h-270l-248 383l-238 -383h-262z" />
<glyph unicode="y" horiz-adv-x="1064" d="M16 1079h252l269 -831l266 831h246l-449 -1257q-57 -158 -129 -213q-70 -55 -211 -55q-43 0 -59 2q-20 2 -47 10v201q16 -4 45 -9q14 -2 41 -2q63 0 98 22.5t53 76.5l31 90z" />
<glyph unicode="z" horiz-adv-x="1007" d="M45 0v180l617 709h-584v190h866v-186l-610 -696h635v-197h-924z" />
<glyph unicode="{" horiz-adv-x="1024" d="M162 442v179q2 0 9 -1.5t13 -1.5h21q125 0 178 59.5t53 201.5v247q0 143 23 207q20 59 80 94q41 27 108 39q53 10 182 11h45v-179h-24q-6 0 -13.5 1t-9.5 1q-109 0 -147.5 -40.5t-38.5 -174.5v-241q0 -156 -43 -221q-43 -63 -160 -93q115 -29 158 -92q45 -68 45 -221 v-240q0 -133 39 -174q41 -43 149 -43h23q6 0 13 1t9 1v-176h-63q-101 0 -166 13q-63 12 -106 36q-57 33 -80 96.5t-23 202.5v248q0 143 -53 202.5t-178 59.5q-2 0 -8.5 -1t-12.5 -1h-22z" />
<glyph unicode="|" horiz-adv-x="1024" d="M424 -483v2048h178v-2048h-178z" />
<glyph unicode="}" horiz-adv-x="1024" d="M152 -238q2 0 9 -1t13 -1h23q109 0 147.5 41t38.5 176v240q0 156 45 219q47 68 160 94q-114 28 -160 93q-45 63 -45 221v241q0 129 -39 175q-35 41 -145 40q-2 0 -9.5 -1t-13.5 -1h-24v179h45q127 0 180 -11q68 -12 108 -39q57 -33 80 -96t23 -205v-247q0 -145 51 -203 t180 -58h21q6 0 13 1.5t9 1.5v-179h-22q-6 0 -12.5 1t-8.5 1q-125 0 -178 -59t-53 -203v-248q0 -141 -23 -204q-20 -59 -80 -95q-47 -27 -108 -38q-53 -10 -180 -11h-45v176z" />
<glyph unicode="~" horiz-adv-x="1705" d="M178 434v187q111 74 203 108q90 35 184 35q61 0 125 -12q76 -14 168 -47q14 -4 43 -17q160 -57 250 -57q84 0 176 37t203 116v-184q-115 -78 -197 -106q-98 -35 -184 -35q-49 0 -92 8q-55 10 -99 27q-8 2 -18 6t-26.5 10t-30.5 10q-212 74 -320 74q-76 0 -174 -39 q-86 -35 -211 -121z" />
<glyph unicode="&#xa0;" />
<glyph unicode="&#xa1;" horiz-adv-x="665" d="M209 0v442l61 652h125l60 -652v-442h-246zM211 1219v254h244v-254h-244z" />
<glyph unicode="&#xa2;" d="M76 537q0 262 133 419.5t356 157.5q6 0 19.5 -1t21.5 -1q20 0 64 -6l47 176h102l-57 -201q121 -47 184.5 -137t75.5 -233h-223q-6 59 -28.5 100t-68.5 72l-200 -713q29 -4 37 -4q6 0 14 -1t12 -1q94 0 158 61q61 59 78 170h223q-8 -186 -137 -309q-127 -121 -312 -121 q-39 0 -59 2q-49 4 -67 8l-60 -213h-100l67 244q-139 66 -209 199q-71 137 -71 332zM309 547q0 -125 24.5 -203t84.5 -133l200 704h-12q-8 0 -20.5 1.5t-18.5 2.5t-10 1q-115 0 -182 -101q-66 -98 -66 -272z" />
<glyph unicode="&#xa3;" d="M59 643v107h138q-53 94 -76 165q-20 63 -21 127q0 178 136 293q137 115 352 115q209 0 338 -123t129 -326v-16h-224q-4 137 -67 205q-68 70 -193 70q-104 0 -168 -64q-66 -66 -65 -162q0 -74 76 -225q23 -45 28 -59h306v-107h-261q12 -57 15 -68q4 -37 4 -40 q0 -92 -45 -174t-156 -187q63 31 113 41q66 14 110 14q61 0 162 -30q94 -29 141 -29q33 0 80 14q29 8 95 45l86 -168q-74 -53 -136 -75q-68 -25 -135 -25q-78 0 -207 43t-192 43q-74 0 -133.5 -20.5t-116.5 -65.5l-106 174q121 94 178 174q57 82 57 168q0 37 -10 82 q-8 35 -33 84h-199z" />
<glyph unicode="&#xa4;" horiz-adv-x="1239" d="M76 432l203 205q-35 47 -60 115q-20 59 -20 133q0 72 20 131q23 68 60 117l-203 204l92 93l203 -203q55 40 116 61q59 20 133 20.5t136 -20.5q59 -20 116 -61l203 203l94 -93l-204 -204q37 -49 59 -117q20 -59 20 -131q0 -74 -20 -133q-25 -68 -59 -115l204 -205l-94 -92 l-203 205q-51 -37 -118 -62q-59 -20 -131 -20q-74 0 -136 20q-59 20 -116 62l-203 -205zM332 885q0 -121 84 -205t206.5 -84t206.5 84t84 205q0 119 -86 205t-204.5 86t-204.5 -86t-86 -205z" />
<glyph unicode="&#xa5;" horiz-adv-x="1232" d="M0 1391h270l359 -646l348 646h250l-289 -504h279v-101h-336l-76 -127h412v-100h-465l-9 -31v-528h-229v528l-10 31h-488v100h428l-79 127h-349v101h289z" />
<glyph unicode="&#xa6;" horiz-adv-x="1024" d="M424 -350v758h178v-758h-178zM424 674v758h178v-758h-178z" />
<glyph unicode="&#xa7;" horiz-adv-x="1024" d="M70 705q0 86 43 157q39 66 131 121q-51 43 -72 90q-23 55 -22 117q0 141 98 231q100 90 254 90q172 0 266 -88q96 -90 96 -241v-4h-198q-6 80 -48 118q-45 41 -126 41q-59 0 -99 -32q-37 -31 -37 -82q0 -47 39 -88q40 -43 123 -86l215 -109q119 -61 168 -131 q53 -76 53 -170q0 -92 -49 -166t-131 -106q55 -49 82 -107q27 -55 27 -125q0 -145 -106.5 -239.5t-274.5 -94.5t-266 93q-100 94 -101 253h205q4 -82 49 -124q46 -43 129 -43q70 0 115 34q43 35 43 97q0 55 -39 94t-150 100l-206 109q-104 53 -160 129q-51 70 -51 162z M266 758q0 -49 33 -84q33 -37 137 -94l223 -121q43 25 68 61.5t25 77.5q0 47 -31 84q-27 31 -123 86l-238 127q-47 -25 -71 -59q-23 -31 -23 -78z" />
<glyph unicode="&#xa8;" horiz-adv-x="1024" d="M244 1274v225h200v-225h-200zM582 1274v225h200v-225h-200z" />
<glyph unicode="&#xa9;" horiz-adv-x="1705" d="M113 731q0 147 57 281q61 141 164 243q98 100 235 160q129 55 283 55q152 0 287 -55q131 -53 239 -162q102 -102 160 -239q55 -132 55 -283q0 -154 -55 -287q-57 -135 -158 -233q-102 -102 -245 -164q-133 -57 -283 -57q-141 0 -281 57q-131 53 -239.5 161.5 t-161.5 240.5q-57 139 -57 282zM223 731q0 -131 47 -239q51 -121 140 -205q84 -88 204 -140q109 -47 240 -47q126 0 240 50q117 51 209 139q90 90 135 200q47 117 47 242q0 127 -47 244q-46 114 -135 203q-96 94 -205 137q-117 47 -244 47t-244 -47q-111 -45 -200 -135 q-88 -92 -138 -207q-49 -117 -49 -242zM457 725q0 209 110.5 332t290.5 123q150 0 244 -76t104 -201h-166q-10 74 -59 115q-47 39 -131 39q-100 0 -155.5 -86t-55.5 -239.5t57.5 -235.5t163.5 -82q80 0 129 43q47 41 60 125h165q-6 -133 -106 -217q-96 -82 -254 -82 q-184 0 -290.5 118.5t-106.5 323.5z" />
<glyph unicode="&#xaa;" horiz-adv-x="845" d="M53 915q0 117 74 174.5t270 79.5q4 2 12.5 3.5t12.5 1.5q156 18 156 86q0 55 -41 79.5t-125 24.5q-78 0 -121 -31q-41 -29 -41 -88v-4h-164v12q0 115 88 179q90 66 244 65q158 0 244 -57q82 -55 81 -166v-375q0 -47 11 -57q12 -12 39 -13h20q2 0 7 1t7 1v-116 q-27 -8 -45 -10q-14 -2 -43 -3q-82 0 -116.5 27t-38.5 88q-45 -57 -119 -92q-68 -33 -150 -33q-121 0 -192 60q-70 57 -70 163zM223 930q0 -51 35 -80t96 -29q98 0 158 51q63 53 63 129v95q-57 -27 -169 -41q-23 -4 -38.5 -7.5t-25.5 -3.5q-57 -12 -88 -38.5t-31 -75.5z" />
<glyph unicode="&#xab;" horiz-adv-x="911" d="M76 430v223l330 265v-203l-211 -172l211 -172v-203zM496 430v223l327 265v-203l-209 -172l209 -172v-203z" />
<glyph unicode="&#xac;" horiz-adv-x="1705" d="M254 696v166h1198v-502h-166v336h-1032z" />
<glyph unicode="&#xad;" horiz-adv-x="657" d="M68 438v211h524v-211h-524z" />
<glyph unicode="&#xae;" horiz-adv-x="1705" d="M113 731q0 150 57 285t166 244q104 104 235 157t280.5 53t289.5 -57q131 -53 241 -164q96 -96 156 -237q55 -131 55 -281q0 -152 -55 -287q-55 -133 -162 -237q-111 -106 -243 -162q-135 -55 -281 -55q-150 0 -283 57t-241 166q-104 108 -160 240q-55 133 -55 278z M223 731q0 -123 47 -239q46 -114 136 -203q84 -88 204 -139q114 -49 234 -50q127 0 246 47q121 47 210 138q88 86 138 198q47 109 47 238q0 137 -45 248q-45 113 -135 205q-92 92 -207 141q-109 47 -244 47q-131 0 -240 -45q-113 -47 -200 -135q-94 -98 -142 -209 q-49 -117 -49 -242zM551 330v829h319q174 0 262.5 -57.5t88.5 -167.5q0 -94 -47 -150q-53 -61 -138 -79l185 -375h-199l-164 346h-129v-346h-178zM729 786h117q100 0 145 31q47 31 47 96.5t-49 100.5q-47 33 -151 33h-109v-261z" />
<glyph unicode="&#xaf;" horiz-adv-x="1024" d="M236 1315v145h552v-145h-552z" />
<glyph unicode="&#xb0;" horiz-adv-x="673" d="M43 1163q0 125 86 211t209 86q121 0 209 -88q86 -86 86 -209t-86 -209t-211 -86q-123 0 -209 86q-84 84 -84 209zM152 1165.5q0 -75.5 55 -131t131 -55.5q80 0 131 55q53 57 53 131t-53 131q-51 53 -131 54q-78 0 -131 -54q-55 -55 -55 -130.5z" />
<glyph unicode="&#xb1;" horiz-adv-x="1705" d="M254 14v168h1198v-168h-1198zM254 707v165h514v334h170v-334h514v-165h-514v-334h-170v334h-514z" />
<glyph unicode="&#xb2;" horiz-adv-x="753" d="M37 557v4q0 117 57.5 199t194.5 158q18 10 55 28q190 104 191 209q0 63 -45.5 102t-116.5 39q-78 0 -125 -47t-47 -129v-12h-146v6q0 141 86 221t238 80q139 0 227 -72q86 -70 86 -188q0 -82 -53 -151q-52 -68 -166 -130l-18 -10q-211 -111 -240 -182h475v-125h-653z" />
<glyph unicode="&#xb3;" horiz-adv-x="753" d="M35 817v6h147q0 -82 45 -125q49 -45 129 -45q88 0 135.5 39t47.5 109q0 72 -47 108q-46 37 -136 37h-37q-4 0 -12 -1t-10 -1v107h14h23q90 0 133 30q41 29 41 99q0 55 -39 87.5t-109 32.5q-74 0 -118 -40q-41 -39 -41 -115v-8h-148v6q0 125 82 198.5t225 73.5 q139 0 224 -61q82 -61 82 -166q0 -66 -29 -107q-31 -43 -88 -67q70 -20 110 -78q39 -53 39 -129q0 -125 -94 -201q-92 -74 -252 -74q-147 0 -231 76q-86 77 -86 209z" />
<glyph unicode="&#xb4;" horiz-adv-x="1024" d="M360 1217l201 358h227l-299 -358h-129z" />
<glyph unicode="&#xb5;" horiz-adv-x="1206" d="M-92 -430l297 1511h229l-125 -635q-8 -35 -10 -55q-2 -16 -2 -49q0 -96 47 -147q46 -49 135 -50q123 0 193 88q74 92 112 293l109 555h225l-145 -739q-14 -72 -15 -82q-4 -45 -4 -51q0 -37 14.5 -51.5t53.5 -14.5h20q2 0 7.5 1t7.5 1l-33 -159q-31 -9 -68 -13 q-49 -4 -82 -4q-76 0 -112.5 31t-36.5 94v15q-39 -68 -109 -105q-68 -37 -145.5 -37t-136.5 27q-61 27 -98 82l-99 -506h-229z" />
<glyph unicode="&#xb6;" horiz-adv-x="1024" d="M55 1130q0 160 106.5 254.5t284.5 94.5h523v-99h-117v-1380h-129v1380h-168v-1380h-131v784q-168 6 -268.5 100t-100.5 246z" />
<glyph unicode="&#xb7;" horiz-adv-x="567" d="M147 702.5q0 55.5 41 96.5t97 41q59 0 98 -39t39 -99q0 -57 -39 -96q-41 -41 -98 -41q-55 0 -96.5 41t-41.5 96.5z" />
<glyph unicode="&#xb8;" horiz-adv-x="1024" d="M285 -313q66 -16 141 -27q72 -10 109 -10q55 0 79.5 18.5t24.5 57.5q0 37 -29 53q-31 18 -88 18h-39q-4 0 -12 -1t-10 -1v195h86v-92h20q109 0 166.5 -43t57.5 -129q0 -94 -62 -140q-63 -47 -188 -47q-43 0 -115 10q-66 10 -139 31z" />
<glyph unicode="&#xb9;" horiz-adv-x="751" d="M119 1157v98q126 0 184 37q55 35 72 123h117v-858h-152v600h-221z" />
<glyph unicode="&#xba;" horiz-adv-x="909" d="M59 1093.5q0 188.5 105 297.5q104 106 291 106q188 0 293 -106q104 -109 104 -297q0 -187 -104 -295q-104 -106 -291 -107q-188 0 -293 106.5t-105 295zM233 1094q0 -131 58 -197q58 -68 166 -68q104 0 164 68q57 66 57 197q0 133 -57 198q-59 68 -164 68 q-106 0 -166 -70q-58 -65 -58 -196z" />
<glyph unicode="&#xbb;" horiz-adv-x="911" d="M86 168v203l211 172l-211 170v202l330 -262v-223zM506 168v203l211 172l-211 170v202l328 -262v-223z" />
<glyph unicode="&#xbc;" horiz-adv-x="1779" d="M115 1171v95q119 0 176 34q55 35 67 113h113v-801h-145v559h-211zM375 -41l889 1481h139l-887 -1481h-141zM1092 186v119l366 473h162v-485h119v-107h-119v-186h-141v186h-387zM1214 293h267v350z" />
<glyph unicode="&#xbd;" horiz-adv-x="1779" d="M115 1171v95q119 0 176 34q55 35 67 113h113v-801h-145v559h-211zM375 -41l889 1481h139l-887 -1481h-141zM1098 0v4q0 113 53 186q55 78 186 148q2 2 16.5 10l35.5 19q182 96 182 190q0 59 -43 96t-113 37q-74 0 -119 -45q-43 -43 -43 -119v-12h-139v6q0 133 82 207 q83 74 227 74q137 0 217 -66q82 -68 82 -176q0 -82 -49 -143q-47 -59 -160 -119q-2 0 -12 -6t-18 -10q-193 -100 -217 -164h452v-117h-620z" />
<glyph unicode="&#xbe;" horiz-adv-x="1779" d="M33 854v6h141q0 -74 43 -117q41 -41 123 -41q83 0 129 37q45 37 45 101q0 68 -45 100q-47 35 -129 35h-35q-4 0 -11 -1t-9 -1v100h12h22q84 0 125 29q39 27 39 90q0 53 -36.5 84t-102.5 31q-74 0 -113 -37q-41 -37 -41 -109v-8h-139v6q0 117 80 184q82 70 213 70 q137 0 213 -57q78 -59 78 -156q0 -57 -29 -98q-31 -43 -82 -64q70 -23 107 -71.5t37 -120.5q0 -115 -90 -187q-88 -70 -242 -69q-137 0 -221 72q-82 69 -82 192zM375 -41l889 1481h139l-887 -1481h-141zM1092 186v119l366 473h162v-485h119v-107h-119v-186h-141v186h-387z M1214 293h267v350z" />
<glyph unicode="&#xbf;" horiz-adv-x="1105" d="M102 371q0 193 220 387q20 18 30 28q66 59 90 109q23 45 23 125v20q0 6 -1 13.5t-1 9.5h217q0 -4 1 -16.5t1 -18.5v-18q0 -104 -31 -179q-33 -78 -108 -153q-29 -29 -54 -49q-145 -133 -145 -254q0 -96 62 -156q59 -57 161 -57q113 0 174.5 73.5t67.5 213.5h223v-25 q0 -217 -125 -340t-348 -123q-203 0 -332 113q-125 111 -125 297zM449 1221v252h241v-252h-241z" />
<glyph unicode="&#xc0;" horiz-adv-x="1347" d="M0 0l535 1473h276l541 -1473h-262l-132 381h-573l-129 -381h-256zM453 586h438l-219 639zM402 1972h225l201 -358h-129z" />
<glyph unicode="&#xc1;" horiz-adv-x="1347" d="M0 0l535 1473h276l541 -1473h-262l-132 381h-573l-129 -381h-256zM453 586h438l-219 639zM524 1614l201 358h227l-299 -358h-129z" />
<glyph unicode="&#xc2;" horiz-adv-x="1347" d="M0 0l535 1473h276l541 -1473h-262l-132 381h-573l-129 -381h-256zM453 586h438l-219 639zM373 1614l197 358h212l197 -358h-129l-174 223l-174 -223h-129z" />
<glyph unicode="&#xc3;" horiz-adv-x="1347" d="M0 0l535 1473h276l541 -1473h-262l-132 381h-573l-129 -381h-256zM453 586h438l-219 639zM373 1661q23 111 70 164t127 53q27 0 38 -2q20 -4 35 -9l92 -26q4 -2 13.5 -4t13.5 -2q8 -2 27 -2q35 0 57.5 18.5t34.5 58.5h98q-20 -109 -74 -167q-49 -55 -127 -56q-20 0 -32 2 q-20 4 -37 8l-92 27q-10 2 -27 6q-8 2 -27 2q-35 0 -57 -16q-18 -14 -35 -55h-98z" />
<glyph unicode="&#xc4;" horiz-adv-x="1347" d="M0 0l535 1473h276l541 -1473h-262l-132 381h-573l-129 -381h-256zM453 586h438l-219 639zM408 1671v225h200v-225h-200zM746 1671v225h200v-225h-200z" />
<glyph unicode="&#xc5;" horiz-adv-x="1347" d="M0 0l526 1446h293l533 -1446h-262l-129 381h-572l-127 -381h-262zM434 1732.5q0 100.5 69.5 170t170 69.5t170 -69.5t69.5 -170t-69 -167.5q-74 -70 -170 -70t-170 70q-70 67 -70 167.5zM457 586h434l-219 639zM561 1733q0 -47 33 -80t80 -33t79.5 33t32.5 80t-32 79 q-35 35 -80 35t-80 -35q-33 -32 -33 -79z" />
<glyph unicode="&#xc6;" horiz-adv-x="1990" d="M-25 0l598 1473h1311v-216h-770v-385h703v-206h-703v-445h791v-221h-1028v381h-492l-143 -381h-267zM461 582h416v686h-156z" />
<glyph unicode="&#xc7;" horiz-adv-x="1486" d="M92 735q0 366 184 572q184 205 512 204q264 0 429 -133q160 -131 182 -366h-242q-23 135 -117 207q-98 74 -256 73q-211 0 -327 -143q-115 -141 -115 -403.5t116.5 -414t321.5 -151.5q160 0 266.5 96.5t118.5 251.5h240q-10 -250 -186 -409q-178 -160 -449 -160 q-313 0 -495.5 207t-182.5 569zM547 -313q66 -16 141 -27q72 -10 109 -10q55 0 79.5 18.5t24.5 57.5q0 37 -29 53q-31 18 -88 18h-39q-4 0 -12 -1t-10 -1v195h86v-92h20q109 0 166.5 -43t57.5 -129q0 -94 -62 -140q-63 -47 -188 -47q-43 0 -115 10q-66 10 -139 31z" />
<glyph unicode="&#xc8;" horiz-adv-x="1320" d="M156 0v1473h1056v-216h-815v-385h752v-206h-752v-445h842v-221h-1083zM410 1972h225l201 -358h-129z" />
<glyph unicode="&#xc9;" horiz-adv-x="1320" d="M156 0v1473h1056v-216h-815v-385h752v-206h-752v-445h842v-221h-1083zM532 1614l201 358h227l-299 -358h-129z" />
<glyph unicode="&#xca;" horiz-adv-x="1320" d="M156 0v1473h1056v-216h-815v-385h752v-206h-752v-445h842v-221h-1083zM381 1614l197 358h212l197 -358h-129l-174 223l-174 -223h-129z" />
<glyph unicode="&#xcb;" horiz-adv-x="1320" d="M156 0v1473h1056v-216h-815v-385h752v-206h-752v-445h842v-221h-1083zM416 1671v225h200v-225h-200zM754 1671v225h200v-225h-200z" />
<glyph unicode="&#xcc;" horiz-adv-x="569" d="M162 0v1473h246v-1473h-246zM13 1972h225l201 -358h-129z" />
<glyph unicode="&#xcd;" horiz-adv-x="569" d="M162 0v1473h246v-1473h-246zM135 1614l201 358h227l-299 -358h-129z" />
<glyph unicode="&#xce;" horiz-adv-x="569" d="M162 0v1473h246v-1473h-246zM-16 1614l197 358h212l197 -358h-129l-174 223l-174 -223h-129z" />
<glyph unicode="&#xcf;" horiz-adv-x="569" d="M162 0v1473h246v-1473h-246zM19 1671v225h200v-225h-200zM357 1671v225h200v-225h-200z" />
<glyph unicode="&#xd0;" horiz-adv-x="1474" d="M0 709v155h164v609h569q324 0 486 -183q164 -186 163 -549q0 -360 -178 -550.5t-512 -190.5h-528v709h-164zM406 217h301q217 0 321.5 131t104.5 406q0 252 -104.5 381t-305.5 129h-317v-400h362v-155h-362v-492z" />
<glyph unicode="&#xd1;" horiz-adv-x="1492" d="M156 0v1473h260l686 -1102v1102h237v-1473h-258l-690 1102v-1102h-235zM445 1661q23 111 70 164t127 53q27 0 38 -2q20 -4 35 -9l92 -26q4 -2 13.5 -4t13.5 -2q8 -2 27 -2q35 0 57.5 18.5t34.5 58.5h98q-20 -109 -74 -167q-49 -55 -127 -56q-20 0 -32 2q-20 4 -37 8 l-92 27q-10 2 -27 6q-8 2 -27 2q-35 0 -57 -16q-18 -14 -35 -55h-98z" />
<glyph unicode="&#xd2;" horiz-adv-x="1595" d="M92 735q0 367 189 570q190 207 517.5 206.5t518.5 -208.5q188 -207 188 -568q0 -362 -188.5 -569t-517.5 -207q-328 0 -518 207q-189 202 -189 569zM342 735q0 -262 121 -413q119 -150 336 -150t336 150q121 152 120 413q0 264 -120.5 413.5t-335.5 149.5t-336 -149.5 t-121 -413.5zM525 1972h225l201 -358h-129z" />
<glyph unicode="&#xd3;" horiz-adv-x="1595" d="M92 735q0 367 189 570q190 207 517.5 206.5t518.5 -208.5q188 -207 188 -568q0 -362 -188.5 -569t-517.5 -207q-328 0 -518 207q-189 202 -189 569zM342 735q0 -262 121 -413q119 -150 336 -150t336 150q121 152 120 413q0 264 -120.5 413.5t-335.5 149.5t-336 -149.5 t-121 -413.5zM647 1614l201 358h227l-299 -358h-129z" />
<glyph unicode="&#xd4;" horiz-adv-x="1595" d="M92 735q0 367 189 570q190 207 517.5 206.5t518.5 -208.5q188 -207 188 -568q0 -362 -188.5 -569t-517.5 -207q-328 0 -518 207q-189 202 -189 569zM342 735q0 -262 121 -413q119 -150 336 -150t336 150q121 152 120 413q0 264 -120.5 413.5t-335.5 149.5t-336 -149.5 t-121 -413.5zM496 1614l197 358h212l197 -358h-129l-174 223l-174 -223h-129z" />
<glyph unicode="&#xd5;" horiz-adv-x="1595" d="M92 735q0 367 189 570q190 207 517.5 206.5t518.5 -208.5q188 -207 188 -568q0 -362 -188.5 -569t-517.5 -207q-328 0 -518 207q-189 202 -189 569zM342 735q0 -262 121 -413q119 -150 336 -150t336 150q121 152 120 413q0 264 -120.5 413.5t-335.5 149.5t-336 -149.5 t-121 -413.5zM496 1661q23 111 70 164t127 53q27 0 38 -2q20 -4 35 -9l92 -26q4 -2 13.5 -4t13.5 -2q8 -2 27 -2q35 0 57.5 18.5t34.5 58.5h98q-20 -109 -74 -167q-49 -55 -127 -56q-20 0 -32 2q-20 4 -37 8l-92 27q-10 2 -27 6q-8 2 -27 2q-35 0 -57 -16q-18 -14 -35 -55 h-98z" />
<glyph unicode="&#xd6;" horiz-adv-x="1595" d="M92 735q0 367 189 570q190 207 517.5 206.5t518.5 -208.5q188 -207 188 -568q0 -362 -188.5 -569t-517.5 -207q-328 0 -518 207q-189 202 -189 569zM342 735q0 -262 121 -413q119 -150 336 -150t336 150q121 152 120 413q0 264 -120.5 413.5t-335.5 149.5t-336 -149.5 t-121 -413.5zM531 1671v225h200v-225h-200zM869 1671v225h200v-225h-200z" />
<glyph unicode="&#xd7;" horiz-adv-x="1705" d="M287 152l458 458l-458 461l116 117l459 -459l461 459l117 -117l-459 -461l459 -458l-117 -119l-461 461l-459 -461z" />
<glyph unicode="&#xd8;" horiz-adv-x="1595" d="M72 25l172 190q-78 98 -115 229q-37 129 -37 291q0 367 189 570q190 207 518 206q147 0 262 -38.5t209 -120.5l149 168l82 -76l-155 -174q82 -104 120.5 -233.5t38.5 -301.5q0 -362 -188.5 -569t-517.5 -207q-147 0 -268 43t-214 129l-161 -182zM342 735 q0 -104 18.5 -188t55.5 -152l700 779q-63 63 -139 94q-77 31 -178 30q-215 0 -336 -149.5t-121 -413.5zM473 309q66 -68 145 -102q82 -35 181 -35q217 0 336 150q121 152 120 413q0 98 -20 197q-18 84 -57 158z" />
<glyph unicode="&#xd9;" horiz-adv-x="1458" d="M147 543v930h246v-916q0 -193 82 -283t254 -90t256 92q82 90 82 281v916h246v-930q0 -281 -151.5 -432.5t-432.5 -151.5q-287 0 -434.5 147.5t-147.5 436.5zM457 1972h225l201 -358h-129z" />
<glyph unicode="&#xda;" horiz-adv-x="1458" d="M147 543v930h246v-916q0 -193 82 -283t254 -90t256 92q82 90 82 281v916h246v-930q0 -281 -151.5 -432.5t-432.5 -151.5q-287 0 -434.5 147.5t-147.5 436.5zM579 1614l201 358h227l-299 -358h-129z" />
<glyph unicode="&#xdb;" horiz-adv-x="1458" d="M147 543v930h246v-916q0 -193 82 -283t254 -90t256 92q82 90 82 281v916h246v-930q0 -281 -151.5 -432.5t-432.5 -151.5q-287 0 -434.5 147.5t-147.5 436.5zM428 1614l197 358h212l197 -358h-129l-174 223l-174 -223h-129z" />
<glyph unicode="&#xdc;" horiz-adv-x="1458" d="M147 543v930h246v-916q0 -193 82 -283t254 -90t256 92q82 90 82 281v916h246v-930q0 -281 -151.5 -432.5t-432.5 -151.5q-287 0 -434.5 147.5t-147.5 436.5zM463 1671v225h200v-225h-200zM801 1671v225h200v-225h-200z" />
<glyph unicode="&#xdd;" horiz-adv-x="1249" d="M-23 1473h304l360 -670l348 670h283l-506 -891v-582h-246v571zM475 1614l201 358h227l-299 -358h-129z" />
<glyph unicode="&#xde;" horiz-adv-x="1314" d="M156 0v1473h243v-263h314q268 0 393 -100t125 -317q0 -209 -125 -314q-127 -104 -377 -104h-332v-375h-241zM399 580h318q147 0 213 49q63 49 63 161.5t-63.5 164t-198.5 51.5h-332v-426z" />
<glyph unicode="&#xdf;" horiz-adv-x="1157" d="M133 0v1075q0 193 119 303q121 111 321 111q199 0 318 -103q115 -100 115 -276q0 -106 -39 -178t-117 -109q115 -41 172 -135q59 -96 59 -229q0 -219 -127 -355q-129 -139 -325 -139q-39 0 -60 2q-25 2 -67 10v197l41 -6q14 -2 39 -2q121 0 192.5 78t71.5 209t-76 194 q-78 66 -223 66h-33v172h18q4 0 9.5 -1t7.5 -1q111 0 170 55t59 154q0 96 -55 151t-156 55q-104 0 -157.5 -65.5t-53.5 -196.5v-1036h-223z" />
<glyph unicode="&#xe0;" horiz-adv-x="1126" d="M72 285q0 166 98 247q96 80 360 115q8 0 23 2q217 27 217 125q0 80 -53 115q-55 37 -168 37q-106 0 -161.5 -43t-55.5 -127v-8h-217v18q0 162 118 254q123 94 324 94q213 0 323.5 -80t110.5 -239v-535q0 -66 15 -82q14 -18 51 -18h16l29 4v-168q-33 -10 -60 -12 q-41 -4 -57 -4q-102 0 -153.5 40.5t-53.5 122.5q-61 -82 -160 -131q-94 -47 -198 -47q-166 0 -256 84q-92 86 -92 236zM297 305q0 -76 45 -115q47 -41 131 -40q127 0 211 71.5t84 184.5v135q-72 -37 -229 -60q-68 -10 -84 -14q-78 -14 -119 -55q-39 -39 -39 -107zM291 1575 h225l201 -358h-129z" />
<glyph unicode="&#xe1;" horiz-adv-x="1126" d="M72 285q0 166 98 247q96 80 360 115q8 0 23 2q217 27 217 125q0 80 -53 115q-55 37 -168 37q-106 0 -161.5 -43t-55.5 -127v-8h-217v18q0 162 118 254q123 94 324 94q213 0 323.5 -80t110.5 -239v-535q0 -66 15 -82q14 -18 51 -18h16l29 4v-168q-33 -10 -60 -12 q-41 -4 -57 -4q-102 0 -153.5 40.5t-53.5 122.5q-61 -82 -160 -131q-94 -47 -198 -47q-166 0 -256 84q-92 86 -92 236zM297 305q0 -76 45 -115q47 -41 131 -40q127 0 211 71.5t84 184.5v135q-72 -37 -229 -60q-68 -10 -84 -14q-78 -14 -119 -55q-39 -39 -39 -107zM413 1217 l201 358h227l-299 -358h-129z" />
<glyph unicode="&#xe2;" horiz-adv-x="1126" d="M72 285q0 166 98 247q96 80 360 115q8 0 23 2q217 27 217 125q0 80 -53 115q-55 37 -168 37q-106 0 -161.5 -43t-55.5 -127v-8h-217v18q0 162 118 254q123 94 324 94q213 0 323.5 -80t110.5 -239v-535q0 -66 15 -82q14 -18 51 -18h16l29 4v-168q-33 -10 -60 -12 q-41 -4 -57 -4q-102 0 -153.5 40.5t-53.5 122.5q-61 -82 -160 -131q-94 -47 -198 -47q-166 0 -256 84q-92 86 -92 236zM297 305q0 -76 45 -115q47 -41 131 -40q127 0 211 71.5t84 184.5v135q-72 -37 -229 -60q-68 -10 -84 -14q-78 -14 -119 -55q-39 -39 -39 -107zM262 1217 l197 358h212l197 -358h-129l-174 223l-174 -223h-129z" />
<glyph unicode="&#xe3;" horiz-adv-x="1126" d="M72 285q0 166 98 247q96 80 360 115q8 0 23 2q217 27 217 125q0 80 -53 115q-55 37 -168 37q-106 0 -161.5 -43t-55.5 -127v-8h-217v18q0 162 118 254q123 94 324 94q213 0 323.5 -80t110.5 -239v-535q0 -66 15 -82q14 -18 51 -18h16l29 4v-168q-33 -10 -60 -12 q-41 -4 -57 -4q-102 0 -153.5 40.5t-53.5 122.5q-61 -82 -160 -131q-94 -47 -198 -47q-166 0 -256 84q-92 86 -92 236zM297 305q0 -76 45 -115q47 -41 131 -40q127 0 211 71.5t84 184.5v135q-72 -37 -229 -60q-68 -10 -84 -14q-78 -14 -119 -55q-39 -39 -39 -107zM262 1264 q23 111 70 164t127 53q27 0 38 -2q20 -4 35 -9l92 -26q4 -2 13.5 -4t13.5 -2q8 -2 27 -2q35 0 57.5 18.5t34.5 58.5h98q-20 -109 -74 -167q-49 -55 -127 -56q-20 0 -32 2q-20 4 -37 8l-92 27q-10 2 -27 6q-8 2 -27 2q-35 0 -57 -16q-18 -14 -35 -55h-98z" />
<glyph unicode="&#xe4;" horiz-adv-x="1126" d="M72 285q0 166 98 247q96 80 360 115q8 0 23 2q217 27 217 125q0 80 -53 115q-55 37 -168 37q-106 0 -161.5 -43t-55.5 -127v-8h-217v18q0 162 118 254q123 94 324 94q213 0 323.5 -80t110.5 -239v-535q0 -66 15 -82q14 -18 51 -18h16l29 4v-168q-33 -10 -60 -12 q-41 -4 -57 -4q-102 0 -153.5 40.5t-53.5 122.5q-61 -82 -160 -131q-94 -47 -198 -47q-166 0 -256 84q-92 86 -92 236zM297 305q0 -76 45 -115q47 -41 131 -40q127 0 211 71.5t84 184.5v135q-72 -37 -229 -60q-68 -10 -84 -14q-78 -14 -119 -55q-39 -39 -39 -107zM297 1274 v225h200v-225h-200zM635 1274v225h200v-225h-200z" />
<glyph unicode="&#xe5;" horiz-adv-x="1126" d="M72 285q0 166 98 247q96 80 360 115q8 0 23 2q217 27 217 125q0 80 -53 115q-55 37 -168 37q-106 0 -161.5 -43t-55.5 -127v-8h-217v18q0 162 118 254q123 94 324 94q213 0 323.5 -80t110.5 -239v-535q0 -66 15 -82q14 -18 51 -18h16l29 4v-168q-33 -10 -60 -12 q-41 -4 -57 -4q-102 0 -153.5 40.5t-53.5 122.5q-61 -82 -160 -131q-94 -47 -198 -47q-166 0 -256 84q-92 86 -92 236zM297 305q0 -76 45 -115q47 -41 131 -40q127 0 211 71.5t84 184.5v135q-72 -37 -229 -60q-68 -10 -84 -14q-78 -14 -119 -55q-39 -39 -39 -107zM330 1448 q0 100 69 170q68 68 168.5 68t170 -70t69.5 -168q0 -100 -69.5 -170t-170 -70t-168.5 70q-69 74 -69 170zM455 1448q0 -47 32.5 -80t79.5 -33q49 0 82 33t33 80q0 45 -35 80q-33 33 -80 33t-79.5 -33t-32.5 -80z" />
<glyph unicode="&#xe6;" horiz-adv-x="1806" d="M78 299q0 68 26 127q28 61 74 104q88 82 330 115h4q2 0 7 1t9 1q121 14 158 37q20 12 43 51t23 60q0 52 -56 92q-53 39 -143 39q-106 0 -161.5 -43t-55.5 -121v-12h-215v18q0 157 117 252q115 94 313 94q123 0 221 -35q92 -33 146 -102q63 70 143 102q86 35 184 35 q229 0 360.5 -149.5t131.5 -415.5v-43q0 -18 -2 -29h-760q2 -156 72 -237q68 -80 198 -80q96 0 162 47q68 47 88 133h227q-31 -172 -163 -274q-131 -100 -324 -101q-147 0 -240 47q-98 51 -149 148q-86 -104 -182.5 -149.5t-229.5 -45.5q-180 0 -266 84q-90 86 -90 250z M303 303q0 -72 47 -112.5t133 -40.5q111 0 197 69q82 68 82 164v152q-68 -29 -187 -50q-117 -20 -118 -20q-74 -18 -117 -62q-37 -37 -37 -100zM975 643h522q0 135 -67 209q-66 72 -191 72q-117 0 -188 -74q-70 -72 -76 -207z" />
<glyph unicode="&#xe7;" horiz-adv-x="1099" d="M78 537q0 268 133 424q133 154 369 153q203 0 329 -108t135 -295h-225q-10 96 -71.5 151.5t-161.5 55.5q-135 0 -203 -95t-68 -282q0 -181 68 -277t197 -96q102 0 168 59q61 57 77 168h222q-16 -201 -146 -315q-131 -115 -344 -115q-221 0 -350 154t-129 418zM351 -313 q66 -16 141 -27q72 -10 109 -10q55 0 79.5 18.5t24.5 57.5q0 37 -29 53q-31 18 -88 18h-39q-4 0 -12 -1t-10 -1v195h86v-92h20q109 0 166.5 -43t57.5 -129q0 -94 -62 -140q-63 -47 -188 -47q-43 0 -115 10q-66 10 -139 31z" />
<glyph unicode="&#xe8;" d="M80 543q0 272 133 420q135 152 371 151q227 0 360 -149q131 -145 131 -408q0 -8 -4 -74v-6h-754q4 -152 74 -231q72 -82 201 -82q90 0 156 47q61 45 83 129h228q-31 -166 -164 -272q-129 -102 -317 -103q-233 0 -365 154q-133 156 -133 424zM317 643h519q0 131 -68 205 q-66 72 -190 72q-115 0 -183 -70q-66 -68 -78 -207zM297 1575h225l201 -358h-129z" />
<glyph unicode="&#xe9;" d="M80 543q0 272 133 420q135 152 371 151q227 0 360 -149q131 -145 131 -408q0 -8 -4 -74v-6h-754q4 -152 74 -231q72 -82 201 -82q90 0 156 47q61 45 83 129h228q-31 -166 -164 -272q-129 -102 -317 -103q-233 0 -365 154q-133 156 -133 424zM317 643h519q0 131 -68 205 q-66 72 -190 72q-115 0 -183 -70q-66 -68 -78 -207zM419 1217l201 358h227l-299 -358h-129z" />
<glyph unicode="&#xea;" d="M80 543q0 272 133 420q135 152 371 151q227 0 360 -149q131 -145 131 -408q0 -8 -4 -74v-6h-754q4 -152 74 -231q72 -82 201 -82q90 0 156 47q61 45 83 129h228q-31 -166 -164 -272q-129 -102 -317 -103q-233 0 -365 154q-133 156 -133 424zM317 643h519q0 131 -68 205 q-66 72 -190 72q-115 0 -183 -70q-66 -68 -78 -207zM268 1217l197 358h212l197 -358h-129l-174 223l-174 -223h-129z" />
<glyph unicode="&#xeb;" d="M80 543q0 272 133 420q135 152 371 151q227 0 360 -149q131 -145 131 -408q0 -8 -4 -74v-6h-754q4 -152 74 -231q72 -82 201 -82q90 0 156 47q61 45 83 129h228q-31 -166 -164 -272q-129 -102 -317 -103q-233 0 -365 154q-133 156 -133 424zM317 643h519q0 131 -68 205 q-66 72 -190 72q-115 0 -183 -70q-66 -68 -78 -207zM303 1274v225h200v-225h-200zM641 1274v225h200v-225h-200z" />
<glyph unicode="&#xec;" horiz-adv-x="499" d="M135 1079h230v-1079h-230v1079zM-24 1575h225l201 -358h-129z" />
<glyph unicode="&#xed;" horiz-adv-x="499" d="M135 1079h230v-1079h-230v1079zM98 1217l201 358h227l-299 -358h-129z" />
<glyph unicode="&#xee;" horiz-adv-x="499" d="M135 1079h230v-1079h-230v1079zM-53 1217l197 358h212l197 -358h-129l-174 223l-174 -223h-129z" />
<glyph unicode="&#xef;" horiz-adv-x="499" d="M135 1079h230v-1079h-230v1079zM-18 1274v225h200v-225h-200zM320 1274v225h200v-225h-200z" />
<glyph unicode="&#xf0;" horiz-adv-x="1216" d="M80 508q0 246 133 391t362 145q29 0 82 -8q35 -6 80 -22q-39 53 -82 92q-37 35 -98 78l-291 -127l-43 98l236 105q-74 45 -113 63q-88 43 -117 53l66 129q90 -31 168 -67q92 -45 166 -88l286 127l46 -99l-230 -102q203 -144 307 -338q102 -190 103 -430q0 -254 -142 -397 q-141 -145 -389 -145.5t-389 143.5t-141 399zM313 518q0 -174 76 -264q77 -92 221 -92q143 0 219 92q76 90 76 266q0 170 -78 266q-76 94 -217 95q-139 0 -219 -97q-78 -92 -78 -266z" />
<glyph unicode="&#xf1;" horiz-adv-x="1189" d="M133 0v1079h221v-145q61 86 142 127q90 45 188 45q203 0 291 -94t88 -326v-686h-229v709q0 98 -52 149q-53 53 -145 53q-127 0 -203 -75q-72 -72 -72 -209v-627h-229zM305 1264q23 111 70 164t127 53q27 0 38 -2q20 -4 35 -9l92 -26q4 -2 13.5 -4t13.5 -2q8 -2 27 -2 q35 0 57.5 18.5t34.5 58.5h98q-20 -109 -74 -167q-49 -55 -127 -56q-20 0 -32 2q-20 4 -37 8l-92 27q-10 2 -27 6q-8 2 -27 2q-35 0 -57 -16q-18 -14 -35 -55h-98z" />
<glyph unicode="&#xf2;" horiz-adv-x="1212" d="M78 539q0 270 139 422q141 154 389 153.5t389.5 -154t141.5 -421.5q0 -270 -139.5 -422t-389.5 -152q-248 0 -389 152q-141 150 -141 422zM311 539q0 -184 76 -280.5t221 -96.5q143 0 219 96t76 280.5t-76 280.5q-78 98 -219 99q-144 0 -221 -99q-76 -96 -76 -280z M334 1575h225l201 -358h-129z" />
<glyph unicode="&#xf3;" horiz-adv-x="1212" d="M78 539q0 270 139 422q141 154 389 153.5t389.5 -154t141.5 -421.5q0 -270 -139.5 -422t-389.5 -152q-248 0 -389 152q-141 150 -141 422zM311 539q0 -184 76 -280.5t221 -96.5q143 0 219 96t76 280.5t-76 280.5q-78 98 -219 99q-144 0 -221 -99q-76 -96 -76 -280z M456 1217l201 358h227l-299 -358h-129z" />
<glyph unicode="&#xf4;" horiz-adv-x="1212" d="M78 539q0 270 139 422q141 154 389 153.5t389.5 -154t141.5 -421.5q0 -270 -139.5 -422t-389.5 -152q-248 0 -389 152q-141 150 -141 422zM311 539q0 -184 76 -280.5t221 -96.5q143 0 219 96t76 280.5t-76 280.5q-78 98 -219 99q-144 0 -221 -99q-76 -96 -76 -280z M305 1217l197 358h212l197 -358h-129l-174 223l-174 -223h-129z" />
<glyph unicode="&#xf5;" horiz-adv-x="1212" d="M78 539q0 270 139 422q141 154 389 153.5t389.5 -154t141.5 -421.5q0 -270 -139.5 -422t-389.5 -152q-248 0 -389 152q-141 150 -141 422zM311 539q0 -184 76 -280.5t221 -96.5q143 0 219 96t76 280.5t-76 280.5q-78 98 -219 99q-144 0 -221 -99q-76 -96 -76 -280z M305 1264q23 111 70 164t127 53q27 0 38 -2q20 -4 35 -9l92 -26q4 -2 13.5 -4t13.5 -2q8 -2 27 -2q35 0 57.5 18.5t34.5 58.5h98q-20 -109 -74 -167q-49 -55 -127 -56q-20 0 -32 2q-20 4 -37 8l-92 27q-10 2 -27 6q-8 2 -27 2q-35 0 -57 -16q-18 -14 -35 -55h-98z" />
<glyph unicode="&#xf6;" horiz-adv-x="1212" d="M78 539q0 270 139 422q141 154 389 153.5t389.5 -154t141.5 -421.5q0 -270 -139.5 -422t-389.5 -152q-248 0 -389 152q-141 150 -141 422zM311 539q0 -184 76 -280.5t221 -96.5q143 0 219 96t76 280.5t-76 280.5q-78 98 -219 99q-144 0 -221 -99q-76 -96 -76 -280z M340 1274v225h200v-225h-200zM678 1274v225h200v-225h-200z" />
<glyph unicode="&#xf7;" horiz-adv-x="1705" d="M254 528v166h1198v-166h-1198zM717 229q0 55 41 96.5t96 41.5t96 -41t41 -97q0 -57 -39 -96t-98 -39t-98 39t-39 96zM717 989q0 57 41 98t96 41t96 -40.5t41 -98t-39 -96.5t-98 -39t-98 39t-39 96z" />
<glyph unicode="&#xf8;" horiz-adv-x="1212" d="M47 8l139 150q-53 68 -82 168q-29 98 -28 213q0 268 141 421.5t391 153.5q113 0 199 -31q94 -33 158 -92l127 139l71 -63l-133 -145q51 -68 80 -168q27 -92 27 -219q0 -262 -141.5 -416t-387.5 -154q-114 0 -202 31t-156 92l-131 -143zM303 530q0 -78 8 -118 q10 -53 27 -90l483 514q-41 47 -92 67q-57 23 -123 23q-151 0 -227 -99q-76 -96 -76 -297zM385 244q41 -47 92 -68q57 -23 125 -22q141 0 223 94q80 92 80 264q0 92 -8 143q-10 61 -27 101z" />
<glyph unicode="&#xf9;" horiz-adv-x="1189" d="M129 393v686h229v-659q0 -141 45 -195q47 -55 152 -55q131 0 202.5 78t71.5 225v606h228v-1079h-219v147q-55 -83 -142 -129q-84 -45 -192 -45q-115 0 -193 33q-74 31 -127 100q-31 43 -43 101q-12 59 -12 186zM322 1575h225l201 -358h-129z" />
<glyph unicode="&#xfa;" horiz-adv-x="1189" d="M129 393v686h229v-659q0 -141 45 -195q47 -55 152 -55q131 0 202.5 78t71.5 225v606h228v-1079h-219v147q-55 -83 -142 -129q-84 -45 -192 -45q-115 0 -193 33q-74 31 -127 100q-31 43 -43 101q-12 59 -12 186zM444 1217l201 358h227l-299 -358h-129z" />
<glyph unicode="&#xfb;" horiz-adv-x="1189" d="M129 393v686h229v-659q0 -141 45 -195q47 -55 152 -55q131 0 202.5 78t71.5 225v606h228v-1079h-219v147q-55 -83 -142 -129q-84 -45 -192 -45q-115 0 -193 33q-74 31 -127 100q-31 43 -43 101q-12 59 -12 186zM293 1217l197 358h212l197 -358h-129l-174 223l-174 -223 h-129z" />
<glyph unicode="&#xfc;" horiz-adv-x="1189" d="M129 393v686h229v-659q0 -141 45 -195q47 -55 152 -55q131 0 202.5 78t71.5 225v606h228v-1079h-219v147q-55 -83 -142 -129q-84 -45 -192 -45q-115 0 -193 33q-74 31 -127 100q-31 43 -43 101q-12 59 -12 186zM328 1274v225h200v-225h-200zM666 1274v225h200v-225h-200z " />
<glyph unicode="&#xfd;" horiz-adv-x="1064" d="M16 1079h252l269 -831l266 831h246l-449 -1257q-57 -158 -129 -213q-70 -55 -211 -55q-43 0 -59 2q-20 2 -47 10v201q16 -4 45 -9q14 -2 41 -2q63 0 98 22.5t53 76.5l31 90zM380 1217l201 358h227l-299 -358h-129z" />
<glyph unicode="&#xfe;" horiz-adv-x="1232" d="M135 -430v1903h223v-541q66 96 146 139t188 43q209 0 334 -156q127 -158 127 -413q0 -258 -127 -420q-126 -160 -332 -160q-109 0 -194 43q-82 41 -142 125v-563h-223zM354 541q0 -184 72 -281q70 -94 213 -94q135 0 209 100q74 102 74 279q0 172 -74 270t-207 98 q-139 0 -213 -96t-74 -276z" />
<glyph unicode="&#xff;" horiz-adv-x="1064" d="M16 1079h252l269 -831l266 831h246l-449 -1257q-57 -158 -129 -213q-70 -55 -211 -55q-43 0 -59 2q-20 2 -47 10v201q16 -4 45 -9q14 -2 41 -2q63 0 98 22.5t53 76.5l31 90zM264 1274v225h200v-225h-200zM602 1274v225h200v-225h-200z" />
<glyph unicode="&#x131;" horiz-adv-x="499" d="M135 1079h230v-1079h-230v1079z" />
<glyph unicode="&#x152;" horiz-adv-x="2340" d="M90 735.5q0 360.5 180 567.5q180 209 490 208q131 0 229 -38q102 -41 187 -121v121h1054v-216h-817v-385h754v-206h-754v-445h844v-221h-1081v121q-86 -83 -185 -123q-96 -39 -227 -39q-313 0 -494 209q-180 207 -180 567.5zM340 735q0 -274 121 -420q123 -147 344 -147 q117 0 207 43q92 45 164 131v788q-80 92 -170 134q-86 39 -215 39q-213 0 -332 -150t-119 -418z" />
<glyph unicode="&#x153;" horiz-adv-x="1921" d="M78 528q0 279 135 432.5t377 153.5q133 0 233 -45q96 -43 162 -139q68 92 162 137q98 47 215 47q227 0 360 -147q131 -145 131 -408q0 -6 -4 -76v-6h-759q4 -152 75 -233q74 -84 201 -84q92 0 156 49q66 49 86 129h227q-28 -166 -160 -270q-129 -102 -319 -103 q-135 0 -228 47q-98 51 -157 144q-66 -94 -162 -144q-94 -47 -221 -47q-240 0 -375 150q-135 151 -135 413zM311 543q0 -181 74 -283q74 -100 207 -100t211 106q76 102 76 293q0 174 -76 270.5t-207 96.5q-133 0 -209 -100.5t-76 -282.5zM1092 645h524q0 129 -69.5 205 t-188.5 76q-113 0 -187 -76q-73 -78 -79 -205z" />
<glyph unicode="&#x178;" horiz-adv-x="1249" d="M-23 1473h304l360 -670l348 670h283l-506 -891v-582h-246v571zM359 1671v225h200v-225h-200zM697 1671v225h200v-225h-200z" />
<glyph unicode="&#x2c6;" horiz-adv-x="1024" d="M209 1217l197 358h212l197 -358h-129l-174 223l-174 -223h-129z" />
<glyph unicode="&#x2dc;" horiz-adv-x="1024" d="M209 1264q23 111 70 164t127 53q27 0 38 -2q20 -4 35 -9l92 -26q4 -2 13.5 -4t13.5 -2q8 -2 27 -2q35 0 57.5 18.5t34.5 58.5h98q-20 -109 -74 -167q-49 -55 -127 -56q-20 0 -32 2q-20 4 -37 8l-92 27q-10 2 -27 6q-8 2 -27 2q-35 0 -57 -16q-18 -14 -35 -55h-98z" />
<glyph unicode="&#x2000;" horiz-adv-x="985" />
<glyph unicode="&#x2001;" horiz-adv-x="1970" />
<glyph unicode="&#x2002;" horiz-adv-x="985" />
<glyph unicode="&#x2003;" horiz-adv-x="1970" />
<glyph unicode="&#x2004;" horiz-adv-x="655" />
<glyph unicode="&#x2005;" horiz-adv-x="491" />
<glyph unicode="&#x2006;" horiz-adv-x="327" />
<glyph unicode="&#x2007;" horiz-adv-x="327" />
<glyph unicode="&#x2008;" horiz-adv-x="245" />
<glyph unicode="&#x2009;" horiz-adv-x="393" />
<glyph unicode="&#x200a;" horiz-adv-x="108" />
<glyph unicode="&#x2010;" horiz-adv-x="657" d="M68 438v211h524v-211h-524z" />
<glyph unicode="&#x2011;" horiz-adv-x="657" d="M68 438v211h524v-211h-524z" />
<glyph unicode="&#x2013;" horiz-adv-x="1024" d="M0 465v158h1024v-158h-1024z" />
<glyph unicode="&#x2014;" horiz-adv-x="2048" d="M0 465v158h2048v-158h-2048z" />
<glyph unicode="&#x2018;" horiz-adv-x="520" d="M143 987v246q0 115 63.5 190.5t170.5 87.5v-96q-59 -12 -90 -57q-31 -47 -31 -121v-20h121v-230h-234z" />
<glyph unicode="&#x2019;" horiz-adv-x="520" d="M143 946v98q61 12 92 57.5t31 119.5v20h-123v232h236v-246q0 -115 -64 -191q-63 -74 -172 -90z" />
<glyph unicode="&#x201a;" horiz-adv-x="520" d="M143 0v229h236v-245q0 -113 -64 -189q-63 -74 -172 -90v96q61 12 93 58q31 47 30 121v20h-123z" />
<glyph unicode="&#x201c;" horiz-adv-x="868" d="M127 987v246q0 117 63 188q66 76 172 90v-96q-59 -12 -90 -57q-33 -49 -32 -121v-20h122v-230h-235zM506 987v246q0 113 63 188q66 78 172 90v-96q-63 -12 -92 -57q-31 -47 -31 -121v-20h123v-230h-235z" />
<glyph unicode="&#x201d;" horiz-adv-x="868" d="M127 946v98q61 12 92 57.5t31 119.5v20h-123v232h235v-246q0 -115 -63 -191q-63 -74 -172 -90zM506 946v98q61 12 92 57.5t31 119.5v20h-123v232h235v-246q0 -115 -63 -191q-63 -74 -172 -90z" />
<glyph unicode="&#x201e;" horiz-adv-x="868" d="M127 0v229h235v-245q0 -113 -63 -189q-63 -74 -172 -90v96q61 12 92 58q31 47 31 121v20h-123zM506 0v229h235v-245q0 -113 -63 -189q-63 -74 -172 -90v96q61 12 92 60q31 45 31 121v18h-123z" />
<glyph unicode="&#x2022;" horiz-adv-x="1206" d="M307 762q0 123 86 209t211 86q123 0 209 -86t86 -209q0 -121 -88 -209t-209 -88t-209 88q-86 86 -86 209z" />
<glyph unicode="&#x2026;" horiz-adv-x="2048" d="M219 0v258h248v-258h-248zM901 0v258h248v-258h-248zM1585 0v258h248v-258h-248z" />
<glyph unicode="&#x202f;" horiz-adv-x="393" />
<glyph unicode="&#x2039;" horiz-adv-x="493" d="M76 430v223l330 265v-203l-211 -172l211 -172v-203z" />
<glyph unicode="&#x203a;" horiz-adv-x="493" d="M90 168v203l209 172l-209 172v203l328 -265v-221z" />
<glyph unicode="&#x205f;" horiz-adv-x="491" />
<glyph unicode="&#x2122;" horiz-adv-x="1705" d="M225 1366v94h467v-94h-168v-448h-129v448h-170zM809 918v542h170l141 -360l133 360h170v-542h-114v428l-160 -428h-59l-166 428v-428h-115z" />
</font>
</defs>
</svg>
